<?xml version="1.0" encoding="utf-8"?>
<svg xmlns="http://www.w3.org/2000/svg" viewBox="301.9398 171.152 48 81.75" width="48px" height="81.75px"><path d="M 435.016 218.625 L 435.916 218.825 C 441.416 220.825 446.916 220.825 452.416 218.125 C 456.816 215.925 461.216 215.925 465.616 218.125 C 471.116 220.825 476.616 220.825 482.116 218.825 L 483.016 218.625 L 482.166 219.825 C 477.366 223.625 473.566 226.825 473.066 232.725 C 472.666 237.825 469.366 241.225 464.866 243.725 C 463.266 244.325 462.866 245.725 462.866 246.825 C 462.566 257.725 464.766 268.125 469.366 278.125 C 470.166 279.925 471.366 281.525 472.566 283.025 C 475.666 286.725 476.766 290.325 476.766 298.225 L 441.266 298.225 C 441.266 290.325 442.366 286.725 445.466 283.025 C 446.666 281.525 447.866 279.925 448.666 278.125 C 453.266 268.125 455.466 257.725 455.166 246.825 C 455.166 245.725 454.766 244.325 453.166 243.725 C 448.666 241.225 445.366 237.825 444.966 232.725 C 444.466 226.825 440.666 223.625 435.866 219.825 Z M 449.066 234.825 C 450.666 237.725 452.366 240.125 456.766 238.925 C 453.766 237.425 451.366 236.125 449.066 234.825 Z M 461.266 238.925 C 465.666 240.125 467.366 237.725 468.966 234.825 C 466.666 236.125 464.266 237.425 461.266 238.925 Z" style="stroke-width: 1; fill: rgb(255, 255, 255);" id="object-1" transform="matrix(1, 0, 0, 1, -133.07618713378906, -45.32305145263673)"/></svg>