<?xml version="1.0" encoding="utf-8"?>
<svg xmlns="http://www.w3.org/2000/svg" viewBox="429.016 216.625 60 60" width="60px" height="60px"><g id="Layer_1"><title/><rect height="5" width="20" x="460.016" y="258.625" style="stroke-width: 1; fill: rgb(255, 255, 255);"/><rect height="5" width="25" x="429.016" y="271.625" style="stroke-width: 1; fill: rgb(255, 255, 255);"/><circle cx="470.022" cy="230.625" r="3" style="stroke-width: 1; fill: rgb(255, 255, 255);"/><path d="M 451.016 244.625 L 489.016 244.625 L 489.016 216.625 L 451.016 216.625 L 451.016 244.625 Z M 484.016 219.625 L 486.016 219.625 L 486.016 221.625 L 484.016 221.625 L 484.016 219.625 Z M 480.016 219.625 L 482.016 219.625 L 482.016 221.625 L 480.016 221.625 L 480.016 219.625 Z M 460.077 229.519 L 463.296 228.644 C 463.436 228.17 463.627 227.712 463.865 227.279 L 462.204 224.379 L 463.765 222.819 L 466.664 224.48 C 467.098 224.242 467.556 224.051 468.03 223.91 L 468.905 220.692 C 469.64 220.611 470.381 220.611 471.116 220.692 L 471.991 223.91 C 472.465 224.051 472.923 224.242 473.357 224.48 L 476.256 222.819 L 477.817 224.38 L 476.156 227.279 C 476.393 227.712 476.584 228.17 476.725 228.644 L 479.943 229.519 C 480.025 230.254 480.025 230.996 479.943 231.731 L 479.943 231.731 L 476.725 232.606 C 476.584 233.08 476.393 233.538 476.156 233.971 L 477.817 236.87 L 476.256 238.431 L 473.357 236.77 C 472.923 237.008 472.465 237.199 471.991 237.34 L 471.116 240.558 L 471.116 240.558 C 470.381 240.639 469.639 240.639 468.905 240.558 L 468.03 237.34 C 467.556 237.199 467.098 237.008 466.664 236.77 L 463.765 238.431 L 462.204 236.87 L 463.865 233.971 C 463.627 233.538 463.436 233.08 463.296 232.605 L 460.077 231.73 C 459.996 230.996 459.996 230.254 460.077 229.519 Z" style="stroke-width: 1; fill: rgb(255, 255, 255);"/><path d="M 442.016 242.625 C 433.549 242.625 428.256 251.792 432.49 259.125 C 436.724 266.458 447.309 266.458 451.543 259.125 C 452.508 257.453 453.016 255.556 453.016 253.625 C 453.016 247.55 448.092 242.625 442.016 242.625 Z M 442.016 256.625 C 439.707 256.625 438.264 254.125 439.418 252.125 C 440.573 250.125 443.46 250.125 444.614 252.125 C 444.878 252.581 445.016 253.098 445.016 253.625 C 445.016 255.282 443.673 256.625 442.016 256.625 Z" style="stroke-width: 1; fill: rgb(255, 255, 255);"/><rect height="7" width="2" x="430.016" y="262.625" style="stroke-width: 1; fill: rgb(255, 255, 255);"/><rect height="7" width="2" x="451.016" y="262.625" style="stroke-width: 1; fill: rgb(255, 255, 255);"/><rect height="4" width="2" x="447.016" y="265.625" style="stroke-width: 1; fill: rgb(255, 255, 255);"/><rect height="4" width="2" x="434.016" y="265.625" style="stroke-width: 1; fill: rgb(255, 255, 255);"/><rect height="2" width="2" x="438.016" y="267.625" style="stroke-width: 1; fill: rgb(255, 255, 255);"/><rect height="2" width="2" x="443.016" y="267.625" style="stroke-width: 1; fill: rgb(255, 255, 255);"/><path d="M 481.188 265.968 L 480.691 266.465 L 483.176 268.931 L 486.456 265.65 C 484.871 264.413 482.613 264.549 481.188 265.968 Z" style="stroke-width: 1; fill: rgb(255, 255, 255);"/><path d="M 483.885 269.635 L 486.369 272.101 L 486.845 271.625 C 488.264 270.2 488.4 267.942 487.163 266.357 L 483.885 269.635 Z" style="stroke-width: 1; fill: rgb(255, 255, 255);"/><path d="M 478.36 268.796 C 476.182 270.974 477.178 274.692 480.153 275.489 C 481.533 275.858 483.006 275.464 484.016 274.453 L 485.613 272.856 L 479.936 267.221 L 478.36 268.796 Z" style="stroke-width: 1; fill: rgb(255, 255, 255);"/><rect height="8" width="5" x="468.016" y="249.625" style="stroke-width: 1; fill: rgb(255, 255, 255);"/><path d="M 451.016 245.714 C 451.746 246.544 452.358 247.47 452.835 248.467 L 489.016 248.467 L 489.016 245.625 L 451.016 245.625 L 451.016 245.714 Z" style="stroke-width: 1; fill: rgb(255, 255, 255);"/></g></svg>