<?xml version="1.0" encoding="utf-8"?>
<svg xmlns="http://www.w3.org/2000/svg" viewBox="447.016 240.542 24 12.165" width="24px" height="12.165px"><g id="Langchain--Streamline-Simple-Icons"><desc>
    Langchain Streamline Icon: https://streamlinehq.com
  </desc><title>LangChain</title><path d="M 453.115 240.542 C 449.752 240.542 447.016 243.271 447.016 246.625 C 447.016 249.979 449.752 252.707 453.115 252.707 L 464.918 252.707 C 468.281 252.707 471.016 249.979 471.016 246.625 C 471.016 243.271 468.28 240.542 464.918 240.542 L 453.115 240.542 Z M 452.994 242.476 C 453.487 242.488 454.014 242.725 454.267 243.099 C 454.634 243.558 454.745 244.165 455.161 244.592 C 455.722 245.204 456.36 245.742 456.877 246.394 C 457.367 246.989 457.716 247.688 458.021 248.391 C 458.145 248.625 458.147 248.912 458.331 249.111 C 458.422 249.231 458.866 249.559 458.769 249.676 C 458.825 249.796 459.239 249.962 459.096 250.078 C 458.901 250.118 458.683 250.126 458.534 249.971 C 458.479 250.097 458.351 250.03 458.252 250.014 C 458.243 250.039 458.235 250.063 458.227 250.088 C 457.898 250.11 457.652 249.775 457.495 249.523 C 457.184 249.355 456.831 249.252 456.513 249.077 C 456.495 249.366 456.558 249.725 456.282 249.912 C 456.268 250.468 457.126 249.978 457.204 250.392 C 457.143 250.399 457.076 250.383 457.027 250.43 C 456.803 250.647 456.546 250.265 456.288 250.423 C 455.942 250.597 455.908 250.739 455.479 250.775 C 455.455 250.739 455.464 250.715 455.485 250.694 C 455.605 250.554 455.614 250.389 455.82 250.329 C 455.608 250.296 455.43 250.413 455.252 250.505 C 455.019 250.6 455.021 250.291 454.664 250.521 C 454.624 250.489 454.643 250.46 454.666 250.435 C 454.756 250.324 454.876 250.308 455.011 250.314 C 454.348 249.946 454.036 250.765 453.729 250.357 C 453.637 250.382 453.603 250.464 453.545 250.523 C 453.495 250.468 453.533 250.401 453.535 250.337 C 453.475 250.309 453.399 250.296 453.417 250.2 C 453.3 250.161 453.218 250.23 453.131 250.295 C 453.052 250.235 453.184 250.146 453.209 250.083 C 453.279 249.961 453.439 250.058 453.52 249.97 C 453.75 249.84 454.072 250.052 454.335 250.016 C 454.538 250.041 454.79 249.833 454.688 249.626 C 454.471 249.349 454.509 248.987 454.504 248.656 C 454.477 248.463 454.013 248.218 453.879 248.01 C 453.713 247.823 453.584 247.605 453.454 247.392 C 452.988 246.491 453.135 245.334 452.547 244.497 C 452.281 244.644 451.934 244.575 451.705 244.378 C 451.581 244.491 451.576 244.638 451.566 244.794 C 451.269 244.498 451.307 243.938 451.544 243.609 C 451.641 243.479 451.757 243.372 451.886 243.277 C 451.915 243.256 451.925 243.235 451.924 243.203 C 452.042 242.676 452.501 242.463 452.994 242.476 M 465.401 242.936 C 465.958 242.936 466.482 243.152 466.875 243.544 C 467.268 243.936 467.485 244.459 467.485 245.014 C 467.485 245.57 467.268 246.092 466.875 246.484 L 466.875 246.485 L 465.973 247.384 C 465.733 247.624 465.438 247.801 465.113 247.901 L 465.097 247.906 L 465.091 247.922 C 464.987 248.197 464.826 248.446 464.617 248.653 L 463.715 249.552 C 463.322 249.945 462.798 250.161 462.241 250.161 C 461.683 250.161 461.16 249.945 460.767 249.552 C 459.954 248.742 459.954 247.423 460.767 246.612 L 461.669 245.713 C 461.908 245.473 462.203 245.297 462.527 245.198 L 462.544 245.193 L 462.549 245.177 C 462.654 244.902 462.816 244.652 463.025 244.444 L 463.926 243.544 C 464.32 243.152 464.844 242.936 465.401 242.936 L 465.401 242.936 Z M 465.401 243.832 C 465.086 243.831 464.784 243.956 464.562 244.179 L 463.66 245.078 C 463.417 245.322 463.291 245.66 463.318 246.003 L 463.323 246.06 C 463.355 246.326 463.472 246.565 463.66 246.752 C 463.79 246.882 463.934 246.964 464.107 247.021 C 464.117 247.073 464.121 247.126 464.121 247.179 C 464.122 247.416 464.028 247.643 463.861 247.809 L 463.805 247.865 C 463.504 247.762 463.253 247.612 463.026 247.386 C 462.726 247.088 462.525 246.705 462.45 246.289 L 462.44 246.231 L 462.394 246.268 C 462.363 246.293 462.334 246.319 462.306 246.347 L 461.404 247.247 C 460.941 247.708 460.941 248.459 461.404 248.92 C 461.635 249.15 461.939 249.266 462.243 249.266 C 462.547 249.266 462.851 249.15 463.082 248.92 L 463.984 248.02 C 464.446 247.559 464.446 246.809 463.984 246.347 C 463.86 246.224 463.711 246.13 463.547 246.072 C 463.538 246.019 463.533 245.965 463.533 245.911 C 463.533 245.652 463.635 245.406 463.823 245.219 C 464.125 245.322 464.393 245.488 464.619 245.714 C 464.92 246.014 465.119 246.393 465.195 246.811 L 465.205 246.868 L 465.251 246.831 C 465.282 246.806 465.312 246.78 465.34 246.752 L 466.242 245.852 C 466.704 245.391 466.704 244.64 466.242 244.179 C 466.019 243.956 465.717 243.831 465.402 243.832 L 465.401 243.832 Z M 455.428 248.989 L 455.427 248.99 C 455.348 249.297 455.323 249.821 454.921 249.837 C 454.888 250.014 455.044 250.081 455.187 250.024 C 455.328 249.96 455.395 250.075 455.443 250.19 C 455.66 250.221 455.982 250.117 455.994 249.86 C 455.669 249.673 455.569 249.318 455.428 248.989" stroke-width="1" style="stroke-width: 1; fill: rgb(255, 255, 255);"/></g></svg>