<?xml version="1.0" encoding="utf-8"?>
<svg xmlns="http://www.w3.org/2000/svg" viewBox="305.6028 147.2507 31.9961 28.5463" width="31.9961px" height="28.5463px"><path d="M 315.166 172.67 C 313.946 171.71 312.646 170.792 311.758 169.498 C 309.888 167.215 308.448 164.573 307.464 161.795 C 306.869 159.989 306.664 158.052 305.898 156.315 C 305.096 155.055 306.036 153.675 307.418 153.275 C 308.033 153.157 309.114 152.575 307.808 152.991 C 306.638 153.849 306.525 152.211 307.725 152.107 C 308.545 151.997 308.845 151.327 308.565 150.725 C 307.685 150.151 310.697 149.522 309.181 148.665 C 307.603 146.965 311.389 146.637 310.455 148.571 C 310.233 150.057 313.101 148.297 312.435 150.015 C 313.112 150.84 314.969 150.203 314.922 151.36 C 315.908 151.428 316.246 152.257 317.172 152.32 C 318.132 152.753 319.869 153.094 320.195 154.175 C 319.245 154.928 317.042 152.62 316.935 154.705 C 317.223 157.785 317.149 160.957 318.275 163.89 C 318.808 165.665 320.1 167.063 321.265 168.446 C 322.382 169.8 323.895 170.754 325.435 171.556 C 326.787 172.194 328.245 172.616 329.718 172.882 C 330.315 172.425 331.371 170.726 332.302 171.442 C 332.347 172.248 330.452 173.126 332.212 173.037 C 333.247 172.725 333.964 173.837 334.815 172.833 C 335.6 173.763 338.075 172.24 337.518 174.139 C 336.763 174.626 335.662 174.332 334.906 175.002 C 333.659 174.379 332.666 175.559 331.286 175.41 C 329.753 175.685 328.194 175.795 326.64 175.797 C 324.09 175.597 321.487 175.511 319.062 174.623 C 317.695 174.226 316.362 173.448 315.162 172.669 L 315.166 172.67 Z M 317.319 173.603 C 318.653 174.179 319.959 174.787 321.419 174.971 C 323.739 175.293 326.134 175.791 328.462 175.337 C 327.408 174.861 326.319 175.522 325.269 174.997 C 324.009 175.267 322.669 174.927 321.369 174.76 C 319.914 174.112 318.343 173.666 316.981 172.824 C 315.278 172.202 317.861 173.622 318.321 173.737 C 319.385 174.341 317.151 173.437 316.835 173.177 C 315.943 172.677 315.83 172.781 316.747 173.289 L 317.307 173.603 L 317.319 173.603 Z M 314.779 171.809 C 316.072 172.289 314.773 170.899 314.182 170.979 C 313.92 170.524 313.179 170.236 313.702 169.992 C 312.762 170.318 312.718 168.752 312.277 168.976 C 311.283 168.662 311.89 167.55 310.707 166.866 C 310.599 166.146 309.531 165.523 309.191 164.438 C 309.041 163.882 307.984 162.288 308.633 163.772 C 309.185 165.202 310.157 166.425 310.967 167.647 C 311.595 168.811 312.337 170.027 313.481 170.754 C 313.867 171.124 314.239 171.691 314.783 171.807 L 314.779 171.809 Z M 311.055 167.719 C 311.1 167.524 311.291 168.141 311.055 167.719 Z M 316.328 172.382 C 316.614 172.254 315.916 172.22 316.328 172.382 Z M 317.028 172.638 C 316.955 172.285 316.708 172.836 317.028 172.638 Z M 317.908 173.004 C 318.326 172.606 317.263 172.754 317.908 173.004 Z M 319.414 173.844 C 319.668 173.469 318.601 173.704 319.414 173.844 Z M 316.524 171.829 C 317.174 171.409 315.684 171.823 316.524 171.829 Z M 317.184 172.159 C 317.164 171.937 316.949 172.259 317.184 172.159 Z M 320.477 174.215 C 321.007 174.549 323.569 174.947 321.965 174.352 C 321.695 174.408 318.99 173.586 320.477 174.215 Z M 315.249 170.143 C 315.199 169.921 314.427 169.897 315.249 170.143 Z M 316.782 171.037 C 317.182 170.757 315.954 170.822 316.782 171.037 Z M 318.082 171.837 C 318.655 171.621 317.154 171.62 318.082 171.837 Z M 314.623 169.462 C 315.243 169.938 317.129 169.522 315.573 169.178 C 314.866 168.801 313.273 168.543 314.359 169.405 L 314.622 169.462 L 314.623 169.462 Z M 318.943 172.099 C 319.203 171.659 317.857 171.847 318.943 172.099 Z M 317.63 171.056 C 319.15 171.486 316.353 170.096 317.255 170.896 L 317.455 170.986 L 317.63 171.054 L 317.63 171.056 Z M 320.262 172.576 C 321.702 172.59 318.962 172.376 320.262 172.576 Z M 314.069 168.629 C 314.013 168.361 313.714 168.651 314.069 168.629 Z M 322.696 173.941 C 322.734 173.457 322.226 174.301 322.696 173.941 Z M 316.526 170.131 C 316.439 169.876 316.076 170.121 316.526 170.131 Z M 314.206 168.461 C 315.032 168.411 313.076 168.097 314.206 168.461 Z M 311.459 166.687 C 311.356 166.291 310.561 165.975 311.459 166.687 Z M 318.671 171.264 C 318.521 171.091 318.601 171.301 318.671 171.264 Z M 323.159 174.019 C 323.145 173.755 322.915 174.119 323.159 174.019 Z M 318.274 170.854 C 318.354 170.514 317.569 170.751 318.274 170.854 Z M 314.93 168.734 C 315.545 168.669 313.945 168.319 314.93 168.734 Z M 320.586 172.249 C 321.544 171.869 319.653 172.064 320.586 172.249 Z M 317.644 170.252 C 318.747 170.394 316.331 169.502 317.401 170.172 L 317.644 170.252 Z M 321.479 172.61 C 322.509 171.995 322.169 174.053 323.227 172.784 C 324.27 172.022 322.327 173.726 323.611 172.92 C 324.541 172.298 325.914 173.215 326.781 173.513 C 327.405 173.483 328.011 174.053 328.651 173.706 C 329.881 173.374 326.243 173.214 327.197 172.626 C 326.071 172.954 325.239 172.236 324.684 171.514 C 323.42 171.222 321.96 170.576 321.329 169.458 C 321.072 169.038 321.699 169.518 321.107 168.831 C 320.347 168.154 319.967 167.385 319.455 166.561 C 318.845 166.236 318.772 165.277 318.711 166.529 C 318.716 165.739 317.974 165.206 317.791 165.427 C 317.788 164.667 318.586 165.047 318.027 164.485 C 317.907 163.695 317.511 162.875 317.393 161.983 C 317.208 161.553 317.367 160.633 316.763 161.606 C 316.543 162.633 316.69 160.344 317.033 161.098 C 317.483 160.328 316.871 160.418 316.847 160.525 C 317.14 159.875 317.033 158.953 316.77 159.305 C 316.926 158.615 317.017 156.77 316.537 157.097 C 316.827 156.377 317.089 153.8 315.825 154.782 C 315.313 154.789 314.427 154.968 314.008 155.176 C 315.321 155.9 313.876 155.438 313.34 155.322 C 313.27 155.992 312.74 155.702 312.08 155.709 C 313.138 155.839 311.565 156.789 310.96 156.421 C 310.172 156.797 311.64 157.737 310.975 158.028 C 311.057 158.465 309.768 157.87 309.869 158.882 C 309.105 158.56 309.764 160.082 310.147 159.567 C 311.447 159.919 311.062 160.721 311.095 161.484 C 310.883 161.928 310.049 160.44 310.909 160.509 C 310.229 159.406 310.159 160.109 309.594 160.623 C 309.464 160.66 311.034 161.353 310.048 161.693 C 310.915 161.827 310.94 162.586 311.116 163.065 C 311.636 163.608 311.529 162.465 312.153 163.118 C 311.758 162.538 310.063 161.481 311.428 161.818 C 311.421 161.234 311.181 160.762 311.6 160.773 C 312.015 160.023 311.166 162.623 312.1 161.669 C 312.358 161.556 312.423 160.919 312.887 161.729 C 313.561 162.393 313.131 162.873 312.179 162.265 C 312.349 162.843 313.452 163.049 313.244 163.952 C 313.464 164.747 313.771 164.454 314.039 164.408 C 314.239 165.18 314.369 164.612 314.379 164.245 C 315.341 164.451 315.115 165.02 315.417 165.417 C 316.08 165.717 314.467 163.389 315.607 164.717 C 316.804 165.797 316.057 166.25 314.982 166.077 C 315.662 166.022 315.882 166.997 316.732 166.962 C 317.508 167.332 318.032 168.749 316.696 168.158 C 316.233 167.74 314.59 167.224 315.932 168.018 C 317.17 168.592 318.154 168.934 319.348 169.655 C 320.202 170.255 320.571 170.963 320.895 171.102 C 320.177 171.445 318.731 170.828 319.795 170.639 C 319.125 170.517 318.371 170.179 319.013 171.013 C 319.559 171.469 320.946 171.421 321.195 171.473 C 320.985 171.937 320.622 171.973 321.203 172.01 C 320.555 172.356 321.411 172.41 321.471 172.607 L 321.479 172.61 Z M 320.153 168.866 C 319.758 168.453 319.656 167.681 320.083 168.353 C 320.303 168.441 320.783 169.616 320.153 168.866 Z M 324.473 171.597 C 324.719 171.581 324.48 171.784 324.473 171.597 Z M 319.533 167.842 C 319.517 167.218 319.675 168.322 319.533 167.842 Z M 319.103 167.265 C 318.606 166.305 319.728 167.535 319.103 167.265 Z M 313.901 163.665 C 314.193 163.587 314.045 164.163 313.901 163.665 Z M 318.041 165.909 C 318.221 165.236 318.241 166.473 318.041 165.909 Z M 315.116 163.875 C 314.91 163.505 315.546 164.223 315.116 163.875 Z M 317.626 164.679 C 317.156 163.626 317.96 164.104 317.731 164.851 L 317.626 164.679 Z M 313.298 161.793 C 313.098 161.447 312.741 160.433 312.853 160.123 C 312.953 160.627 313.925 162.293 313.329 160.823 C 312.671 159.583 314.116 161.225 314.265 161.535 C 314.335 161.842 313.859 161.451 314.181 162.173 C 313.593 161.351 313.834 162.627 313.299 161.803 L 313.298 161.793 Z M 311.961 160.871 C 312.016 160.067 312.267 161.421 311.961 160.871 Z M 312.563 161.079 C 312.85 160.473 313.049 161.924 312.563 161.079 Z M 311.103 159.979 C 310.605 159.484 310.245 159.029 311.127 159.672 C 311.467 159.685 310.372 158.635 311.209 159.338 C 312.089 159.498 311.643 160.781 311.104 159.978 L 311.103 159.979 Z M 311.863 159.959 C 312.153 159.672 312.017 160.241 311.863 159.959 Z M 312.331 160.109 C 311.891 159.287 312.863 160.454 312.331 160.109 Z M 311.401 159.221 C 309.953 157.931 313.221 159.894 311.637 159.461 L 311.401 159.221 Z M 315.549 161.631 C 314.922 161.256 315.382 158.987 315.596 160.538 C 316.206 160.341 315.562 161.34 316.016 161.33 C 315.946 161.96 315.741 162.187 315.549 161.63 L 315.549 161.631 Z M 317.083 162.538 C 317.143 161.854 317.213 163.006 317.083 162.538 Z M 316.817 162.274 C 316.887 161.982 316.823 162.618 316.817 162.274 Z M 311.695 158.797 C 310.765 157.514 314.398 160.095 312.291 159.122 C 312.071 159.064 311.806 159.044 311.695 158.797 Z M 314.65 160.363 C 314.562 159.283 314.846 160.543 314.65 160.363 Z M 316.893 161.803 C 317.066 161.188 316.906 162.21 316.893 161.803 Z M 311.838 158.307 C 312.391 158.189 314.138 159.277 312.533 158.617 C 312.356 158.421 311.977 158.51 311.838 158.307 Z M 316.584 160.673 C 316.644 159.568 316.914 160.013 316.586 160.833 L 316.584 160.673 Z M 312.249 157.923 C 312.475 157.593 311.651 156.43 312.367 157.506 C 312.667 157.752 313.264 157.918 312.747 158.022 C 313.562 158.742 312.547 158.217 312.25 157.922 L 312.249 157.923 Z M 316.349 160.329 C 316.504 159.069 316.486 161.066 316.349 160.329 Z M 311.779 156.761 C 311.951 156.687 311.869 156.991 311.779 156.761 Z M 312.849 157.398 C 313.124 156.82 313.357 158.042 312.849 157.398 Z M 315.866 159.076 C 315.864 158.856 315.923 159.399 315.866 159.076 Z M 315.691 158.69 C 315.273 157.657 316.091 159.237 315.691 158.69 Z M 315.434 158.012 C 315.364 157.585 315.674 158.548 315.434 158.012 Z M 315.852 157.332 C 315.564 156.826 316.215 155.102 316.288 156.172 C 315.985 157.006 316.201 157.472 316.411 156.352 C 316.801 155.472 316.327 158.089 315.851 157.332 L 315.852 157.332 Z M 316.282 154.766 C 316.407 154.612 316.31 154.951 316.282 154.766 Z M 315.563 168.917 C 315.393 168.767 315.585 169.011 315.563 168.917 Z M 317.043 169.665 C 317.866 169.877 317.863 169.537 317.118 169.435 C 316.718 169.063 315.456 168.668 316.586 169.389 C 316.66 169.589 316.896 169.574 317.043 169.664 L 317.043 169.665 Z M 314.123 167.725 C 314.576 168.065 315.83 168.683 314.769 167.855 C 315.127 167.439 314.084 167.217 314.429 166.939 C 313.549 166.399 313.734 166.439 314.351 166.466 C 313.293 165.993 314.504 166.029 314.447 165.786 C 314.039 165.706 312.421 165.066 313.373 165.838 C 312.405 165.345 313.143 166.022 312.85 165.951 C 311.85 165.681 313.73 166.705 312.693 166.451 C 313.26 166.901 314.221 167.604 312.933 166.927 C 312.763 167.171 313.855 167.542 314.133 167.727 L 314.123 167.725 Z M 315.67 168.615 C 317.55 169.221 314.747 167.875 315.67 168.615 Z M 323.59 173.413 C 323.614 173.039 323.333 173.733 323.59 173.413 Z M 324.404 173.756 C 324.838 173.336 324.422 174.426 325.124 173.653 C 325.131 173.1 325.104 172.773 324.318 173.445 C 324.101 173.565 324.005 174.075 324.405 173.755 L 324.404 173.756 Z M 311.481 165.637 C 311.348 165.113 310.547 165.115 311.481 165.637 Z M 312.351 166.207 C 312.028 165.672 311.199 165.722 312.351 166.207 Z M 317.297 169.19 C 317.78 169.62 319.515 169.505 317.883 169.243 C 317.643 168.886 316.35 168.973 317.297 169.19 Z M 324.095 173.39 C 324.838 172.766 323.375 173.668 324.095 173.39 Z M 325.641 174.452 C 325.646 174.252 325.321 174.539 325.641 174.452 Z M 325.644 174.172 C 326.467 173.302 324.847 174.222 325.644 174.172 Z M 309.343 163.847 C 308.643 162.847 308.907 162.397 308.231 161.58 C 308.103 160.955 307.071 159.537 307.697 161.04 C 308.271 161.92 308.441 163.28 309.343 163.85 L 309.343 163.847 Z M 325.383 173.893 C 326.898 172.915 324.763 173.467 325.383 173.893 Z M 326.539 174.346 C 327.299 173.696 326.059 174.21 326.539 174.346 Z M 311.223 164.532 C 311.44 164.209 310.663 164.49 311.223 164.532 Z M 326.298 174.037 C 327.032 173.564 326.128 173.637 326.165 174.08 L 326.298 174.037 Z M 316.336 167.757 C 316.311 167.437 315.948 167.784 316.336 167.757 Z M 316.951 168.111 C 316.755 167.715 316.651 168.173 316.951 168.111 Z M 327.476 174.356 C 328.416 173.676 326.906 174.226 327.279 174.486 L 327.476 174.356 Z M 327.116 174.182 C 327.883 173.54 326.306 174.466 327.116 174.182 Z M 328.956 175.407 C 329.47 175.063 328.331 175.297 328.956 175.407 Z M 311.696 164.297 C 312.386 164.451 314.451 165.995 313.233 164.404 C 312.609 164.219 312.983 162.694 312.346 162.964 C 312.773 163.678 312.696 163.982 311.8 163.532 C 310.673 162.982 311.167 163.804 311.387 164.032 C 311.087 164.102 311.784 164.292 311.697 164.298 L 311.696 164.297 Z M 308.556 161.817 C 308.679 161.307 307.419 159.007 307.961 160.665 C 308.156 161.012 308.136 161.67 308.556 161.817 Z M 314.322 165.372 C 313.966 165.075 314.305 165.33 314.322 165.372 Z M 315.196 165.576 C 315.196 165.036 314.23 165.356 315.196 165.576 Z M 322.773 170.352 C 322.628 169.982 322.203 170.344 322.773 170.352 Z M 323.137 170.618 C 323.083 170.411 322.937 170.658 323.137 170.618 Z M 326.14 172.51 C 326.43 172.297 325.78 172.482 326.14 172.51 Z M 310.123 162.219 C 310.949 161.899 309.238 161.991 310.123 162.219 Z M 322.103 169.767 C 322.093 169.232 321.576 169.9 322.103 169.767 Z M 309.796 161.457 C 310.326 161.277 309.306 161.339 309.796 161.457 Z M 311.336 162.203 C 311.326 162.027 311.173 162.27 311.336 162.203 Z M 330.124 173.723 C 330.806 173.585 332.362 174.07 332.614 173.543 C 331.784 173.523 329.747 172.958 329.651 173.677 L 329.831 173.707 L 330.124 173.725 L 330.124 173.723 Z M 311.826 162.327 C 311.838 161.785 311.404 162.307 311.826 162.327 Z M 307.776 159.517 C 307.592 158.485 307.076 159.361 307.776 159.517 Z M 308.741 159.76 C 308.753 159.428 307.857 159.462 308.741 159.76 Z M 309.293 160.03 C 309.133 159.9 309.169 160.193 309.293 160.03 Z M 312.766 162.257 C 312.93 162.107 312.379 162.147 312.766 162.257 Z M 308.926 159.417 C 308.832 158.637 307.806 159.3 308.926 159.417 Z M 306.946 158.132 C 306.918 157.772 306.753 158.268 306.946 158.132 Z M 307.241 157.91 C 307.193 157.483 306.988 157.964 307.241 157.91 Z M 308.868 158.88 C 309.556 158.61 307.615 158.32 308.728 158.83 L 308.868 158.88 Z M 330.646 172.337 C 331.086 171.933 330.086 172.212 330.646 172.337 Z M 333.276 173.7 C 333.453 173.18 332.831 173.77 333.276 173.7 Z M 309.033 158.032 C 309.106 157.527 308.487 158.132 309.033 158.032 Z M 306.717 156.482 C 306.595 155.767 306.613 154.517 307.801 154.939 C 306.214 155.255 308.901 156.913 308.561 155.603 C 309.229 155.636 309.867 155.208 309.516 155.856 C 310.833 155.713 311.743 154.571 313.015 154.732 C 314.015 154.6 315.087 154.502 316.155 154.102 C 317.032 154.039 317.875 153.095 317.395 152.535 C 316.199 152.435 314.947 152.583 313.625 152.847 C 312.16 153.151 310.83 153.73 309.352 153.977 C 307.912 154.171 309.642 154.51 309.229 154.587 C 308.479 154.847 310.126 155.023 309.132 155.299 C 308.518 155.182 307.879 154.971 308.142 154.324 C 306.762 154.504 305.549 155.076 306.64 156.48 L 306.72 156.481 L 306.717 156.482 Z M 310.045 154.797 C 310.368 153.605 311.778 155.777 310.575 154.957 C 310.432 154.849 310.195 154.762 310.045 154.797 Z M 310.108 154.219 C 310.575 153.872 310.356 154.414 310.108 154.219 Z M 310.701 154.229 C 310.744 153.681 312.059 154.529 310.918 154.426 L 310.701 154.229 Z M 311.511 153.903 C 311.808 153.556 311.597 154.21 311.511 153.903 Z M 311.719 153.763 C 312.213 153.17 314.512 153.383 312.819 153.705 C 312.369 153.365 312.022 153.905 311.719 153.763 Z M 314.719 153.3 C 314.645 151.68 316.211 153.875 314.719 153.3 Z M 315.571 153.295 C 315.881 152.479 316.781 152.967 315.716 153.131 C 315.739 153.218 315.684 153.553 315.571 153.295 Z M 308.698 157.622 C 309.628 157.052 307.711 157.128 308.698 157.622 Z M 309.386 157.822 C 309.712 157.475 308.686 157.682 309.386 157.822 Z M 307.36 156.367 C 307.89 155.957 306.73 156.212 307.36 156.367 Z M 334.83 173.552 C 334.845 173.078 334.424 173.765 334.83 173.552 Z M 332.04 171.647 C 332.12 171.102 331.68 171.694 332.04 171.647 Z M 335.6 173.737 C 336.343 173.74 337.852 173.507 336.235 173.507 C 335.981 173.547 334.755 173.537 335.6 173.737 Z M 309.993 157.47 C 310.595 157.43 310.933 156.807 309.876 156.842 C 308.236 156.672 311.322 157.404 309.676 157.194 C 309.454 157.341 309.99 157.51 310.003 157.469 L 309.993 157.47 Z M 310.523 157.738 C 310.46 157.352 310.337 157.943 310.523 157.738 Z M 311.153 156.062 C 311.413 155.738 310.793 155.975 311.153 156.062 Z M 309.153 152.718 C 310.227 152.353 311.695 151.943 312.203 152.898 C 311.687 152.278 311.995 151.666 312.483 152.574 C 313.173 153.492 313.517 152.156 313.069 151.848 C 313.579 152.482 314.159 152.782 313.411 151.888 C 314.226 150.908 311.781 152.016 311.225 152.005 C 310.958 152.125 308.465 152.641 309.155 152.718 L 309.153 152.718 Z M 309.783 151.513 C 310.395 151.051 311.901 151.788 310.935 151.053 C 310.84 150.97 308.82 151.61 309.783 151.513 Z M 312.015 151.605 C 312.731 151.623 311.705 150.642 312.559 151.087 C 312.419 150.629 311.565 150.544 311.147 150.36 C 310.911 150.778 311.627 151.61 312.014 151.605 L 312.015 151.605 Z M 310.175 149.579 C 310.423 149.243 309.74 149.749 310.175 149.579 Z M 311.083 149.797 C 312.238 149.644 310.789 149.3 310.85 149.785 L 311.083 149.797 Z M 309.379 148.467 C 308.566 147.405 310.909 148.645 310.082 147.534 C 309.386 146.981 308.719 148.158 309.379 148.467 Z M 319.813 154.087 C 320.186 153.427 318.273 153.197 319.563 153.853 C 319.681 153.893 319.655 154.133 319.813 154.087 Z" style="stroke-width: 1; fill: rgb(255, 255, 255);" id="object-0"/></svg>