<?xml version="1.0" encoding="utf-8"?>
<svg xmlns="http://www.w3.org/2000/svg" viewBox="108.4107 155.0806 168.6023 151.5287" width="168.602px" height="151.529px" preserveAspectRatio="none"><g id="object-0" transform="matrix(1, 0, 0, 1, -133.07618713378903, -45.32305145263672)"><path d="M 294.411 291.918 C 291.789 291.404 283.028 288.934 274.939 286.432 C 260.331 281.911 260.176 281.89 251.436 283.056 C 246.598 283.702 242.232 283.836 241.734 283.352 C 240.293 281.955 245.3 277.887 252.969 274.221 C 263.225 269.317 272.474 269.514 292.108 275.059 C 310.231 280.174 315.411 280.045 329.686 274.122 C 342.198 268.93 344.297 268.429 344.297 270.641 C 344.297 273.354 337.82 280.049 330.785 284.603 C 319.388 291.981 307.205 294.432 294.411 291.918 Z" fill="#00f" stroke-width=".463156" style="stroke-width: 0.463;"/><path d="M 346.794 256.345 C 344.172 255.828 335.409 253.361 327.322 250.857 C 312.714 246.338 312.559 246.314 303.82 247.483 C 298.982 248.129 294.615 248.263 294.118 247.779 C 292.676 246.382 297.683 242.314 305.353 238.647 C 315.609 233.744 324.858 233.941 344.492 239.485 C 362.614 244.601 367.795 244.471 382.07 238.549 C 394.579 233.356 396.68 232.856 396.68 235.065 C 396.68 237.781 390.201 244.476 383.168 249.03 C 371.771 256.408 359.588 258.859 346.794 256.345 Z" fill="#009533" stroke-width=".463156" style="stroke-width: 0.463;"/><path d="M 321.012 222.924 C 318.39 222.408 309.627 219.938 301.54 217.436 C 286.932 212.915 286.777 212.894 278.038 214.06 C 273.2 214.708 268.833 214.842 268.336 214.358 C 266.894 212.962 271.901 208.891 279.571 205.227 C 289.827 200.323 299.075 200.52 318.71 206.062 C 336.832 211.18 342.013 211.051 356.287 205.126 C 368.797 199.936 370.898 199.433 370.898 201.645 C 370.898 204.361 364.419 211.053 357.386 215.607 C 345.989 222.988 333.806 225.436 321.012 222.924 Z" fill="#f52b1e" stroke-width=".463156" style="stroke-width: 0.463;"/><path d="M 355.341 351.433 C 349.111 350.123 342.7 346.595 341.092 343.59 C 337.578 337.027 340.865 327.86 347.569 325.522 C 350.884 324.367 351.205 323.794 350.353 320.555 C 348.975 315.299 349.848 311.78 353.344 308.496 L 356.405 305.62 L 353.276 301.01 C 350.332 296.669 349.487 292.953 350.116 287.113 C 350.614 282.509 354.238 278.671 361.391 275.171 C 368.25 271.815 368.99 271.73 383.682 272.559 C 397.333 273.331 399.398 273.155 403.974 270.822 C 406.774 269.392 409.377 268.535 409.758 268.915 C 411.312 270.469 407.267 274.242 400.349 277.69 L 393.009 281.352 L 393.009 288.233 C 393.009 299.993 386.293 305.557 370.372 306.979 C 361.215 307.799 361.187 307.813 361.187 311.698 C 361.187 315.583 361.21 315.594 370.421 316.418 C 375.532 316.876 381.131 318.209 382.955 319.404 C 393.056 326.022 389.863 344.254 377.764 349.062 C 371.483 351.557 361.142 352.651 355.341 351.433 Z M 373.572 344.144 C 377.398 342.165 379.346 337.98 378.494 333.564 C 377.853 330.231 372.945 328.334 363.069 327.604 L 354.56 326.975 L 351.64 331.428 C 348.269 336.571 348.783 339.66 353.644 343.484 C 357.738 346.705 367.966 347.043 373.572 344.144 Z M 375.13 300.693 C 382.037 295.261 382.182 279.493 375.344 277.777 C 365.903 275.408 359.14 295.503 367.424 301.303 C 370.966 303.787 371.224 303.766 375.13 300.693 Z" stroke-width=".553306" style="stroke-width: 0.553; fill: rgb(255, 255, 255);"/></g></svg>