<?xml version="1.0" encoding="utf-8"?>
<svg xmlns="http://www.w3.org/2000/svg" viewBox="123.54 182.668 218.584 80.937" width="218.584px" height="80.937px"><g id="object-5" transform="matrix(0.9999999999999999, 0, 0, 0.9999999999999999, 0, 0)"><path d="M 171.47 221.293 L 169.275 221.293 C 168.397 230.247 167.168 241.132 151.718 241.132 L 144.608 241.132 C 140.482 241.132 140.306 240.518 140.306 237.621 L 140.306 191.007 C 140.306 188.022 140.306 186.793 148.558 186.793 L 151.455 186.793 L 151.455 184.16 C 148.294 184.423 140.394 184.423 136.79 184.423 C 133.37 184.423 126.52 184.423 123.54 184.16 L 123.54 186.793 L 125.56 186.793 C 132.32 186.793 132.49 187.759 132.49 190.919 L 132.49 237.006 C 132.49 240.166 132.32 241.132 125.56 241.132 L 123.54 241.132 L 123.54 243.853 L 169.099 243.853 L 171.47 221.293 Z" style="stroke-width: 45; fill: rgb(255, 255, 255);" id="object-0"/><path d="M 169.977 184.072 C 169.626 183.019 169.451 182.668 168.309 182.668 C 167.168 182.668 166.905 183.019 166.554 184.072 L 152.42 219.888 C 151.806 221.381 150.752 224.102 145.31 224.102 L 145.31 226.297 L 158.916 226.297 L 158.916 224.102 C 156.195 224.102 154.527 222.873 154.527 221.117 C 154.527 220.678 154.615 220.503 154.791 219.888 C 154.791 219.888 157.775 212.339 157.775 212.339 L 175.157 212.339 L 178.668 221.293 C 178.844 221.644 179.019 222.083 179.019 222.346 C 179.019 224.102 175.683 224.102 174.015 224.102 L 174.015 226.297 L 191.309 226.297 L 191.309 224.102 L 190.08 224.102 C 185.954 224.102 185.515 223.487 184.901 221.732 C 184.901 221.732 169.977 184.072 169.977 184.072 Z M 166.466 190.305 L 174.279 210.144 L 158.653 210.144 L 166.466 190.305 Z" style="stroke-width: 45; fill: rgb(255, 255, 255);" id="object-1"/><path d="M 240.293 184.687 L 186.832 184.687 C 186.832 184.687 185.252 204.35 185.252 204.35 L 187.359 204.35 C 188.588 190.217 189.904 187.32 203.16 187.32 C 204.74 187.32 207.022 187.32 207.9 187.496 C 209.744 187.847 209.744 188.812 209.744 190.832 L 209.744 236.918 C 209.744 239.903 209.744 241.132 200.526 241.132 L 197.015 241.132 L 197.015 243.853 C 200.614 243.59 209.48 243.59 213.518 243.59 C 217.557 243.59 226.598 243.59 230.198 243.853 L 230.198 241.132 L 226.686 241.132 C 217.469 241.132 217.469 239.903 217.469 236.918 L 217.469 190.832 C 217.469 189.076 217.469 187.847 219.049 187.496 C 220.015 187.32 222.385 187.32 224.053 187.32 C 237.22 187.32 238.537 190.217 239.766 204.35 L 241.961 204.35 C 241.961 204.35 240.293 184.687 240.293 184.687 Z" style="stroke-width: 45; fill: rgb(255, 255, 255);" id="object-2"/><path d="M 287.345 241.044 L 285.151 241.044 C 282.956 254.475 280.937 260.884 265.926 260.884 L 254.338 260.884 C 250.212 260.884 250.037 260.269 250.037 257.372 L 250.037 234.022 L 257.85 234.022 C 266.365 234.022 267.33 236.831 267.33 244.292 L 269.525 244.292 L 269.525 221.117 L 267.33 221.117 C 267.33 228.579 266.365 231.3 257.85 231.3 L 250.037 231.3 L 250.037 210.32 C 250.037 207.423 250.212 206.808 254.338 206.808 L 265.575 206.808 C 279.006 206.808 281.288 211.636 282.693 223.839 L 284.887 223.839 L 282.429 204.175 L 233.27 204.175 L 233.27 206.808 L 235.289 206.808 C 242.049 206.808 242.224 207.774 242.224 210.934 L 242.224 256.758 C 242.224 259.918 242.049 260.884 235.289 260.884 L 233.27 260.884 L 233.27 263.605 L 283.658 263.605 L 287.345 241.044 Z" style="stroke-width: 45; fill: rgb(255, 255, 255);" id="object-3"/><path d="M 313.769 210.056 L 325.795 192.499 C 327.639 189.69 330.623 186.881 338.436 186.793 L 338.436 184.16 L 317.543 184.16 L 317.543 186.793 C 321.055 186.881 322.986 188.812 322.986 190.832 C 322.986 191.709 322.81 191.885 322.196 192.851 C 322.196 192.851 312.188 207.598 312.188 207.598 L 300.952 190.744 C 300.776 190.48 300.338 189.778 300.338 189.427 C 300.338 188.374 302.269 186.881 305.956 186.793 L 305.956 184.16 C 302.971 184.423 296.563 184.423 293.227 184.423 C 290.506 184.423 285.063 184.335 281.815 184.16 L 281.815 186.793 L 283.483 186.793 C 288.311 186.793 289.979 187.408 291.647 189.866 C 291.647 189.866 307.711 214.182 307.711 214.182 L 293.403 235.338 C 292.174 237.094 289.54 241.132 280.762 241.132 L 280.762 243.853 L 301.654 243.853 L 301.654 241.132 C 297.616 241.044 296.124 238.674 296.124 237.094 C 296.124 236.304 296.387 235.953 297.002 234.987 L 309.379 216.64 L 323.249 237.533 C 323.425 237.884 323.688 238.235 323.688 238.499 C 323.688 239.552 321.757 241.044 317.982 241.132 L 317.982 243.853 C 321.055 243.59 327.463 243.59 330.711 243.59 C 334.398 243.59 338.436 243.678 342.124 243.853 L 342.124 241.132 L 340.455 241.132 C 335.89 241.132 334.047 240.693 332.203 237.972 C 332.203 237.972 313.769 210.056 313.769 210.056 Z" style="stroke-width: 45; fill: rgb(255, 255, 255);" id="object-4"/></g></svg>