<?xml version="1.0" encoding="utf-8"?>
<svg xmlns="http://www.w3.org/2000/svg" viewBox="65.1839 155.9004 415.7822 192.5881" width="415.782px" height="192.588px" preserveAspectRatio="none"><defs><radialGradient id="radialGradient3455" gradientUnits="userSpaceOnUse" cx="218.25391" cy="95.125" r="79.129799" href="#SVGID_1_"/><linearGradient id="linearGradient3457" gradientUnits="userSpaceOnUse" x1="218.7861" y1="1.0391001" x2="218.7861" y2="202.71831" href="#SVGID_2_"/><linearGradient id="linearGradient3459" gradientUnits="userSpaceOnUse" x1="218.2529" y1="170.35741" x2="218.2529" y2="37.341301" href="#SVGID_3_"/><radialGradient id="radialGradient3461" gradientUnits="userSpaceOnUse" gradientTransform="matrix(1.222,0,0,1.2633,-48.5827,-25.6794)" cx="218.5645" cy="96.648399" r="25.0833" href="#SVGID_4_"/><linearGradient id="linearGradient3463" gradientUnits="userSpaceOnUse" x1="397.47751" y1="116.9717" x2="370.7334" y2="116.9717" href="#SVGID_5_"/><linearGradient id="linearGradient3465" gradientUnits="userSpaceOnUse" gradientTransform="matrix(-0.9997,-2.62e-2,-2.62e-2,0.9997,770.5633,19.0474)" x1="730.29688" y1="117.7197" x2="703.55371" y2="117.7197" href="#SVGID_6_"/></defs><g id="group-1" transform="matrix(1, 0, 0, 1, -0.000003814697265625, 62.740913391113274)"><g transform="matrix(1, 0, 0, 1, 169.554276, 227.111816)"><g id="group-2"><g id="group-3" transform="matrix(1, 0, 0, 1, -115.264931, -95.816414)"><g transform="matrix(0.9523816,0,0,0.9523816,10.418305,-38.612202)" id="g3032"><g id="background"><path style="fill:#ffffff;fill-rule:evenodd;stroke:#ffffff" clip-rule="evenodd" d="M 216.6289,0.75 C 282.3125,-2.999 345.7871,36.125 393.2539,71.375 C 410.1621,83.9307 446.0293,107.9639 435.0039,127.625 C 420.7793,144.0303 393.7959,135.8154 349.2539,157.125 C 290.1416,185.4053 286.25,202.2275 218.2539,202.708 C 147.918,203.206 146.3174,183.8906 84.0039,156.125 C 34.8164,134.208 7.5771,144.043 1.7539,126.875 C -6.1802,104.3359 25.458,83.5547 42.7539,71.375 C 121.2207,16.1191 155.4424,0.6924 216.6289,0.75 z" id="path238"/></g><g id="round"><radialGradient id="SVGID_1_" cx="218.25391" cy="95.125" r="79.129799" gradientUnits="userSpaceOnUse"><stop offset="0.533" style="stop-color:#1B617E" id="stop242"/><stop offset="0.5626" style="stop-color:#457E96" id="stop244"/><stop offset="0.5984" style="stop-color:#709CAE" id="stop246"/><stop offset="0.637" style="stop-color:#97B7C4" id="stop248"/><stop offset="0.678" style="stop-color:#B7CDD6" id="stop250"/><stop offset="0.722" style="stop-color:#D1DFE5" id="stop252"/><stop offset="0.7701" style="stop-color:#E6EEF1" id="stop254"/><stop offset="0.8244" style="stop-color:#F4F7F9" id="stop256"/><stop offset="0.8904" style="stop-color:#FCFDFE" id="stop258"/><stop offset="1" style="stop-color:#FFFFFF" id="stop260"/></radialGradient><ellipse style="fill:url(#radialGradient3455)" cx="218.25391" cy="95.125" rx="80" ry="78.25" id="ellipse262"/><ellipse style="opacity:0.3;fill:none;stroke:#004c78;stroke-width:12" cx="218.25391" cy="95.875" rx="74.25" ry="72.381798" id="ellipse264"/><g id="radius"><ellipse style="fill:none;stroke:#002040" cx="218.25391" cy="95.125" rx="80" ry="78.25" id="ellipse267"/><ellipse style="fill:none;stroke:#002040" cx="218.37109" cy="96.119102" rx="77.632797" ry="75.738297" id="ellipse269"/><ellipse style="fill:none;stroke:#002040" cx="218.46291" cy="96.959" rx="75.092796" ry="73.009804" id="ellipse271"/><ellipse style="fill:none;stroke:#002040" cx="218.6282" cy="96.958" rx="35.957802" ry="36" id="ellipse273"/><ellipse style="fill:none;stroke:#002040" cx="218.29491" cy="96.959" rx="43.791" ry="43.667" id="ellipse275"/><ellipse style="fill:none;stroke:#002040" cx="218.1282" cy="96.458" rx="51.290798" ry="51.167" id="ellipse277"/><ellipse style="fill:none;stroke:#002040" cx="218.6277" cy="96.417" rx="58.291302" ry="57.125" id="ellipse279"/><ellipse style="fill:none;stroke:#002040" cx="218.25391" cy="96.125" rx="64.5" ry="63" id="ellipse281"/><ellipse style="fill:none;stroke:#002040" cx="218.12891" cy="96.5" rx="68.875" ry="66.875" id="ellipse283"/><ellipse style="fill:none;stroke:#002040" cx="218.25391" cy="96.375" rx="72.5" ry="70.75" id="ellipse285"/></g><g id="spokes"><line style="fill:none;stroke:#002040" x1="196.67039" y1="74.125" x2="166.00391" y2="35.625" id="line288"/><line style="fill:none;stroke:#002040" x1="194.17039" y1="76.125" x2="158.50391" y2="42.125" id="line290"/><line style="fill:none;stroke:#002040" x1="199.50391" y1="71.292" x2="170.8374" y2="31.792" id="line292"/><line style="fill:none;stroke:#002040" x1="203.17039" y1="69.625" x2="175.50391" y2="28.625" id="line294"/><line style="fill:none;stroke:#002040" x1="208.17039" y1="67.125" x2="181.17039" y2="25.292" id="line296"/><line style="fill:none;stroke:#002040" x1="193.3374" y1="79.125" x2="153.67039" y2="48.292" id="line298"/><line style="fill:none;stroke:#002040" x1="191.67039" y1="81.792" x2="148.8374" y2="55.625" id="line300"/><line style="fill:none;stroke:#002040" x1="190.3374" y1="85.125" x2="144.67039" y2="63.4585" id="line302"/><line style="fill:none;stroke:#002040" x1="189.17039" y1="88.125" x2="141.67039" y2="71.125" id="line304"/><line style="fill:none;stroke:#002040" x1="188.00391" y1="90.959" x2="139.67039" y2="79.625" id="line306"/><line style="fill:none;stroke:#002040" x1="187.67039" y1="94.459" x2="138.50391" y2="87.292" id="line308"/><line style="fill:none;stroke:#002040" x1="188.00391" y1="97.459" x2="138.17039" y2="95.792" id="line310"/><line style="fill:none;stroke:#002040" x1="188.17039" y1="100.792" x2="138.50391" y2="103.959" id="line312"/><line style="fill:none;stroke:#002040" x1="188.50391" y1="103.292" x2="140.17039" y2="112.125" id="line314"/><line style="fill:none;stroke:#002040" x1="189.3374" y1="106.459" x2="142.50391" y2="120.459" id="line316"/><line style="fill:none;stroke:#002040" x1="191.00391" y1="109.459" x2="145.3374" y2="127.792" id="line318"/><line style="fill:none;stroke:#002040" x1="192.17039" y1="112.459" x2="149.50391" y2="135.459" id="line320"/><line style="fill:none;stroke:#002040" x1="193.67039" y1="114.625" x2="154.50391" y2="142.625" id="line322"/><line style="fill:none;stroke:#002040" x1="196.00391" y1="117.625" x2="159.3374" y2="148.459" id="line324"/><line style="fill:none;stroke:#002040" x1="198.3374" y1="119.459" x2="165.67039" y2="153.79201" id="line326"/><line style="fill:none;stroke:#002040" x1="200.3374" y1="121.459" x2="172.00391" y2="159.29201" id="line328"/><line style="fill:none;stroke:#002040" x1="203.17039" y1="123.459" x2="179.3374" y2="163.29201" id="line330"/><line style="fill:none;stroke:#002040" x1="206.00391" y1="124.792" x2="186.67039" y2="166.79201" id="line332"/><line style="fill:none;stroke:#002040" x1="209.00391" y1="126.125" x2="194.00391" y2="169.959" id="line334"/><line style="fill:none;stroke:#002040" x1="212.50391" y1="127.625" x2="202.00391" y2="171.459" id="line336"/><line style="fill:none;stroke:#002040" x1="215.8374" y1="128.125" x2="209.8374" y2="172.959" id="line338"/><line style="fill:none;stroke:#002040" x1="218.3369" y1="128.625" x2="218.25391" y2="173.375" id="line340"/><line style="fill:none;stroke:#002040" x1="221.1709" y1="128.79201" x2="226.6709" y2="172.79201" id="line342"/><line style="fill:none;stroke:#002040" x1="224.00391" y1="128.125" x2="234.8369" y2="171.625" id="line344"/><line style="fill:none;stroke:#002040" x1="227.00391" y1="126.125" x2="242.50391" y2="169.125" id="line346"/><line style="fill:none;stroke:#002040" x1="229.8369" y1="124.459" x2="250.1709" y2="166.79201" id="line348"/><line style="fill:none;stroke:#002040" x1="233.00391" y1="123.125" x2="257.6709" y2="163.125" id="line350"/><line style="fill:none;stroke:#002040" x1="235.8369" y1="121.292" x2="264.6709" y2="159.125" id="line352"/><line style="fill:none;stroke:#002040" x1="238.8369" y1="119.625" x2="271.33691" y2="153.959" id="line354"/><line style="fill:none;stroke:#002040" x1="241.00391" y1="117.292" x2="277.00391" y2="148.29201" id="line356"/><line style="fill:none;stroke:#002040" x1="242.6709" y1="114.959" x2="282.33691" y2="142.125" id="line358"/><line style="fill:none;stroke:#002040" x1="245.3369" y1="112.625" x2="286.1709" y2="135.29201" id="line360"/><line style="fill:none;stroke:#002040" x1="246.1709" y1="109.625" x2="290.33691" y2="128.125" id="line362"/><line style="fill:none;stroke:#002040" x1="247.3369" y1="106.459" x2="293.50391" y2="121.292" id="line364"/><line style="fill:none;stroke:#002040" x1="248.1709" y1="103.625" x2="296.00391" y2="112.292" id="line366"/><line style="fill:none;stroke:#002040" x1="248.6709" y1="101.125" x2="297.6709" y2="103.625" id="line368"/><line style="fill:none;stroke:#002040" x1="249.00391" y1="96.792" x2="298.1709" y2="96.125" id="line370"/><line style="fill:none;stroke:#002040" x1="248.8369" y1="94.125" x2="297.83691" y2="87.959" id="line372"/><line style="fill:none;stroke:#002040" x1="248.1709" y1="91.292" x2="296.6709" y2="79.625" id="line374"/><line style="fill:none;stroke:#002040" x1="248.00391" y1="88.292" x2="294.50391" y2="71.458504" id="line376"/><line style="fill:none;stroke:#002040" x1="246.3369" y1="85.125" x2="291.33691" y2="63.4585" id="line378"/><line style="fill:none;stroke:#002040" x1="245.3369" y1="81.792" x2="287.83691" y2="56.292" id="line380"/><line style="fill:none;stroke:#002040" x1="243.3369" y1="79.459" x2="283.1709" y2="49.292" id="line382"/><line style="fill:none;stroke:#002040" x1="241.00391" y1="76.625" x2="277.6709" y2="42.9585" id="line384"/><line style="fill:none;stroke:#002040" x1="238.50391" y1="73.625" x2="272.33691" y2="37.625" id="line386"/><line style="fill:none;stroke:#002040" x1="235.50391" y1="71.792" x2="266.6709" y2="32.792" id="line388"/><line style="fill:none;stroke:#002040" x1="233.6709" y1="69.458504" x2="260.1709" y2="28.292" id="line390"/><line style="fill:none;stroke:#002040" x1="228.50391" y1="67.458504" x2="252.6709" y2="24.292" id="line392"/><line style="fill:none;stroke:#002040" x1="225.1709" y1="65.292" x2="244.50391" y2="20.9585" id="line394"/><line style="fill:none;stroke:#002040" x1="221.50391" y1="64.625" x2="235.6709" y2="18.9585" id="line396"/><line style="fill:none;stroke:#002040" x1="218.00391" y1="64.125" x2="217.8374" y2="16.9585" id="line398"/><line style="fill:none;stroke:#002040" x1="216.8374" y1="64.292" x2="207.8374" y2="17.125" id="line400"/><line style="fill:none;stroke:#002040" x1="189.8374" y1="21.792" x2="211.00391" y2="65.458504" id="line402"/><line style="fill:none;stroke:#002040" x1="199.3374" y1="18.9585" x2="213.8374" y2="65.125" id="line404"/><line style="fill:none;stroke:#002040" x1="219.6709" y1="64.458504" x2="226.50391" y2="17.4585" id="line406"/></g></g><g id="masks"><path style="fill:#ffffff" id="mask_1_" d="M 148.7539,51.375 C 151.1523,47.7407 151.6309,43.208 154.4985,39.8135 C 157.5586,36.1914 161.5048,31.5518 165.2983,28.6865 C 170.2207,24.9677 177.4677,22.0351 183.205,19.9316 C 187.3813,18.4004 191.5321,17.7456 195.9242,16.6435 C 206.2015,14.0654 216.1498,12.9453 226.9218,13.3749 C 236.1132,13.7416 245.6591,15.3856 253.9159,19.3925 C 258.6639,21.6967 262.7968,25.0063 266.9979,27.8002 C 270.8172,30.3407 273.4559,32.4608 276.4217,35.6957 C 279.5096,39.0634 285.1151,45.414 284.8699,50.2362 C 267.5369,44.5013 250.7107,39.4584 232.3533,38.8812 C 214.2537,38.3124 189.7537,39.4999 176.6287,42.0624 C 168.7425,43.602 157.5662,47.6249 148.5037,51.3749"/><path style="fill:#ffffff" id="mask" d="M 185.4204,167.042 C 197.2539,169.417 208.9668,170.6992 220.2539,170.375 C 233.2949,170 240.2959,168.958 255.2959,165.458 C 248.3145,173.4805 243.7959,174.792 234.7734,176.4101 C 227.3457,177.7421 219.6132,176.2656 212.0327,176.3095 C 205.8022,176.3447 198.0527,177.0302 192.3354,174.4423 C 189.4975,173.1571 189.2138,171.2499 187.3779,169.3749"/></g><g id="gradients"><linearGradient id="SVGID_2_" gradientUnits="userSpaceOnUse" x1="218.7861" y1="1.0391001" x2="218.7861" y2="202.71831"><stop offset="0.4725" style="stop-color:#C7E9F2" id="stop413"/><stop offset="0.5702" style="stop-color:#B2DFF1" id="stop415"/><stop offset="1" style="stop-color:#45BEEE" id="stop417"/></linearGradient><path style="opacity:0.6;fill:url(#linearGradient3457);fill-rule:evenodd" clip-rule="evenodd" d="M 216.5879,1.292 C 282.2715,-2.457 345.7871,36.125 393.2539,71.375 C 410.1621,83.9307 446.0293,107.9639 435.0039,127.625 C 420.7793,144.0303 393.7959,135.8154 349.2539,157.125 C 290.1416,185.4053 286.25,202.2275 218.2539,202.708 C 147.918,203.206 146.3174,183.8906 84.0039,156.125 C 34.8164,134.208 7.5771,144.043 1.7539,126.875 C -6.1802,104.3359 25.458,83.5547 42.7539,71.375 C 121.2207,16.1191 155.4014,1.2344 216.5879,1.292 z" id="path419"/><linearGradient id="SVGID_3_" gradientUnits="userSpaceOnUse" x1="218.2529" y1="170.35741" x2="218.2529" y2="37.341301"><stop offset="0.4176" style="stop-color:#FFFFFF" id="stop422"/><stop offset="0.4917" style="stop-color:#DEF1F8" id="stop424"/><stop offset="0.6692" style="stop-color:#9CD7EC" id="stop426"/><stop offset="0.8192" style="stop-color:#65C7E5" id="stop428"/><stop offset="0.934" style="stop-color:#34BEE0" id="stop430"/><stop offset="1" style="stop-color:#04BBDF" id="stop432"/></linearGradient><path style="opacity:0.4;fill:url(#linearGradient3459);fill-rule:evenodd" clip-rule="evenodd" d="M 217.2334,37.5972 C 260.498,35.5957 293.0918,44.1031 380.5039,106.875 C 386.5918,111.2451 407.9883,120.0078 403.7539,122.125 C 393.2539,127.375 383.8926,122.0156 360.0039,128.625 C 314.4551,141.2236 266.0684,170.4902 218.1758,170.3574 C 169.791,170.2236 148.9077,152.126 74.5039,128.875 C 58.5039,123.875 37.0039,126.625 33.0039,122.875 C 27.6914,117.8945 50.2227,111.8672 57.6728,106.6904 C 158.4971,36.6421 174.1387,37.5596 217.2334,37.5972 z" id="path434"/><g style="opacity:0.5" id="g436"><path style="fill:#ffffff;fill-rule:evenodd" clip-rule="evenodd" d="M 242.415,62.6392 C 240.9804,55.1739 234.9541,52.0752 229.582,52.8829" id="path438"/><g id="g440"><path style="fill:none" d="M 242.415,62.6392 C 240.9804,55.1739 234.9541,52.0752 229.582,52.8829" id="path442"/><path style="fill:#ffffff" d="M 252.0742,60.0508 C 250.1572,51.2344 242.1269,48.124 233.8105,49.1612 C 229.5107,49.6978 224.2373,50.7418 220.8632,53.7061 C 217.579,56.5918 223.7655,56.8023 225.3534,56.6045 C 227.2694,56.3652 223.5936,56.5303 225.5282,56.5806 C 224.1346,56.5445 225.871,56.708 226.1044,56.7622 C 226.9071,56.9487 227.7743,57.5034 228.6024,58.0679 C 231.0145,59.7119 232.1561,62.4707 232.7557,65.2276 C 233.3661,68.0347 241.7577,65.813 243.1639,65.4361 C 244.7979,64.9985 252.7031,62.9404 252.0742,60.0508 L 252.0742,60.0508 z" id="path444"/></g></g></g><g style="opacity:0.57999998" id="target"><radialGradient id="SVGID_4_" cx="218.5645" cy="96.648399" r="25.0833" gradientTransform="matrix(1.222,0,0,1.2633,-48.5827,-25.6794)" gradientUnits="userSpaceOnUse"><stop offset="0.8022" style="stop-color:#091520" id="stop448"/><stop offset="0.8238" style="stop-color:#0D1925" id="stop450"/><stop offset="0.8536" style="stop-color:#162431" id="stop452"/><stop offset="0.8883" style="stop-color:#233445" id="stop454"/><stop offset="0.9267" style="stop-color:#324B65" id="stop456"/><stop offset="0.9676" style="stop-color:#436A93" id="stop458"/><stop offset="1" style="stop-color:#4D88C7" id="stop460"/></radialGradient><path style="fill:url(#radialGradient3461)" d="M 249.0039,96.4189 C 249.0039,114.0039 235.3486,128.2597 218.499,128.2597 C 201.6582,128.2597 188.0039,114.0038 188.0039,96.4189 C 188.0039,78.8291 201.6582,64.5727 218.499,64.5727 C 235.3486,64.5728 249.0039,78.8291 249.0039,96.4189 z" id="path462"/><line style="fill:none;stroke:#ffffff" x1="218.29491" y1="53.292" x2="218.25391" y2="139.5" id="line464"/><line style="opacity:0.75;fill:none;stroke:#ffffff;stroke-width:1.60000002" x1="177.1709" y1="96.958" x2="260.58789" y2="96.792" id="line466"/><ellipse style="opacity:0.76000001;fill:none;stroke:#ffffff;stroke-width:1.60000002" cx="218.4624" cy="96.709" rx="13.7085" ry="14.333" id="ellipse468"/><ellipse style="opacity:0.79000005;fill:none;stroke:#ffffff;stroke-width:1.60000002" cx="218.37891" cy="96.542" rx="30.375" ry="31.083" id="ellipse470"/><ellipse style="fill:#ffffff;stroke:#ffffff" cx="218.1702" cy="96.542999" rx="4.8337002" ry="4.6659999" id="ellipse472"/></g><g id="shape"><path style="opacity:0.8;fill:none;fill-rule:evenodd;stroke:#004c78" clip-rule="evenodd" d="M 216.6289,0.75 C 282.3125,-2.999 345.7871,36.125 393.2539,71.375 C 410.1621,83.9307 446.0293,107.9639 435.0039,127.625 C 420.7793,144.0303 393.7959,135.8154 349.2539,157.125 C 290.1416,185.4053 286.25,202.2275 218.2539,202.708 C 147.918,203.206 146.3174,183.8906 84.0039,156.125 C 34.8164,134.208 7.5771,144.043 1.7539,126.875 C -6.1802,104.3359 25.458,83.5547 42.7539,71.375 C 121.2207,16.1191 155.4424,0.6924 216.6289,0.75 z" id="path475"/><path style="opacity:0.8;fill:none;fill-rule:evenodd;stroke:#004c78" clip-rule="evenodd" d="M 215.7539,5.125 C 278.4199,1.5723 339.2041,38.333 384.4912,71.7295 C 400.6211,83.624 438.2734,106.749 427.7539,125.375 C 414.1807,140.916 385.4971,133.9385 343.0039,154.125 C 286.6045,180.9199 282.376,196.6699 217.5039,197.125 C 150.3989,197.5977 147.9556,179.1826 88.5039,152.875 C 41.5762,132.1104 14.6768,140.0098 8.7539,123.875 C 1.5039,104.125 33.5854,83.2686 50.0879,71.7295 C 124.9502,19.3789 157.3779,5.0693 215.7539,5.125 z" id="path477"/><path style="opacity:0.8;fill:none;fill-rule:evenodd;stroke:#004c78" clip-rule="evenodd" d="M 216.5039,7.375 C 277.374,3.875 336.2383,38.8867 380.2275,71.7876 C 395.8955,83.5059 437.6972,109.8789 423.2539,125.125 C 409.7539,139.375 381.2051,133.0723 339.9287,152.9609 C 285.1455,179.3593 281.0381,193.875 218.0244,194.3222 C 152.8428,194.789 150.4697,177.6464 92.7217,151.7304 C 47.1377,131.2734 19.0073,139.0195 13.2539,123.1249 C 6.2119,103.6679 39.3769,83.1542 55.4062,71.7875 C 128.123,20.2134 159.8008,7.3203 216.5039,7.375 z" id="path479"/><path style="opacity:0.8;fill:none;fill-rule:evenodd;stroke:#004c78" clip-rule="evenodd" d="M 216.3555,2.9829 C 280.8887,-0.6807 342.67,37.2832 389.3028,71.7275 C 405.9161,83.9941 441.7735,107.2158 430.9434,126.4277 C 416.9668,142.4589 390.7539,135.375 346.6954,155.2529 C 288.0714,181.7021 284.797,199.3242 217.9918,199.7929 C 148.8893,200.2792 146.504,180.8749 86.0963,154.2763 C 38.2506,133.2089 11.0514,140.9081 5.2877,125.6933 C -2.6157,104.8281 28.0225,84.791 45.9595,71.981 C 119.7646,19.272 156.2422,2.9263 216.3555,2.9829 z" id="path481"/><path style="opacity:0.7;fill:none;fill-rule:evenodd;stroke:#004c78;stroke-width:0.60000002" clip-rule="evenodd" d="M 217.0039,33.75 C 264.1367,33.7295 297.0039,40.375 393.7734,110.4287 C 400.3545,115.1933 417.0039,121.875 413.2539,125.375 C 402.1113,135.7754 397.8252,125.5791 371.9248,132.7441 C 322.543,146.4043 270.0664,178.8496 218.1436,178.705 C 165.6856,178.5595 145.628,158.7177 65.004,133.3749 C 54.0392,129.9286 29.1837,133.2978 24.004,125.6249 C 19.586,119.081 36.0538,115.2909 44.131,109.6786 C 153.4414,33.7354 170.2827,33.7705 217.0039,33.75 z" id="path483"/><path style="opacity:0.7;fill:none;fill-rule:evenodd;stroke:#004c78;stroke-width:0.60000002" clip-rule="evenodd" d="M 216.8789,35 C 262.8574,34.918 297.3789,41.5 390.2695,109.8516 C 396.6826,114.5704 413.5517,121.2286 411.2539,124.625 C 405.5039,133.125 392.8457,125.4385 369.5039,132.125 C 321.5039,145.875 269.0039,176.375 218.1523,176.7627 C 167.0014,177.1523 145.7656,157.4609 66.7539,132.625 C 56.0083,129.248 31.2539,132.125 26.0039,125.875 C 21.0264,119.9492 39.7041,114.6172 47.6196,109.1172 C 154.7437,34.6924 171.6079,35.0806 216.8789,35 z" id="path485"/><path style="opacity:0.7;fill:none;fill-rule:evenodd;stroke:#004c78;stroke-width:0.60000002" clip-rule="evenodd" d="M 217.1289,36.1875 C 261.8301,36.1973 296.6289,42.125 386.8359,109.2773 C 393.0947,113.9365 410.7539,121.375 408.5039,124.375 C 403.4805,131.0732 388.585,125.2852 366.2539,131.375 C 319.5039,144.125 268.0273,174.9883 218.1601,174.8496 C 167.7797,174.71 146.4355,156.2139 69.0039,131.875 C 58.4731,128.5654 33.5039,130.625 28.2539,125.625 C 22.7627,120.3955 43.2812,113.9473 51.0386,108.5566 C 156.02,35.6206 172.2573,36.1777 217.1289,36.1875 z" id="path487"/><path style="opacity:0.7;fill:none;fill-rule:evenodd;stroke:#004c78;stroke-width:0.60000002" clip-rule="evenodd" d="M 217.1914,37.4375 C 261.6143,37.3174 293.6289,42.5 383.4707,108.9541 C 389.6182,113.501 410.1719,121.6846 406.0039,124.125 C 395.7539,130.125 387.7393,124.1074 363.2539,130.625 C 316.6016,143.043 267.0381,173.3506 218.168,173.2148 C 168.7954,173.0781 146.3868,154.7265 70.5039,130.875 C 60.1836,127.6318 36.7539,129.625 30.7539,124.875 C 24.9282,120.2627 46.7871,113.5312 54.3892,108.248 C 157.271,36.7705 173.2173,37.5566 217.1914,37.4375 z" id="path489"/><path style="opacity:0.7;fill:none;fill-rule:evenodd;stroke:#004c78;stroke-width:0.60000002" clip-rule="evenodd" d="M 217.2852,38.5938 C 260.5557,38.3716 293.629,44.5 380.504,108.375 C 386.5411,112.8145 407.9884,121.5078 403.754,123.625 C 393.254,128.875 383.8927,123.5156 360.004,130.125 C 314.4552,142.7236 266.0685,171.9902 218.1759,171.8574 C 169.7911,171.7236 148.9078,153.626 74.504,130.375 C 58.504,125.375 36.775,128.3555 33.004,124.375 C 28.504,119.625 50.2228,113.3672 57.6729,108.1904 C 158.4971,38.1421 174.1909,38.8149 217.2852,38.5938 z" id="path491"/></g><g id="spokes_1_"><path style="opacity:0.8;fill:none;fill-rule:evenodd;stroke:#004c78" clip-rule="evenodd" d="M 284.7539,157.875 C 294.6709,163.6914 302.0039,169.125 297.5039,184.875" id="path494"/><path style="opacity:0.8;fill:none;stroke:#004c78" d="M 309.2539,178.875 C 313.7539,165.875 303.6631,153.125 296.7539,153.125" id="path496"/><path style="opacity:0.8;fill:none;stroke:#004c78" d="M 320.2539,172.375 C 325.0039,161.125 314.0039,149.625 308.2539,148.125" id="path498"/><path style="opacity:0.8;fill:none;stroke:#004c78" d="M 332.0039,165.875 C 334.7539,153.875 325.2539,145.625 320.2539,143.875" id="path500"/><path style="opacity:0.8;fill:none;stroke:#004c78" d="M 342.7539,160.125 C 345.0039,148.625 336.7539,141.375 330.7539,139.625" id="path502"/><path style="opacity:0.8;fill:none;stroke:#004c78" d="M 352.5039,155.125 C 354.5039,142.625 349.0039,135.875 343.7539,134.625" id="path504"/><path style="opacity:0.8;fill:none;stroke:#004c78" d="M 360.7539,151.625 C 366.5039,139.375 359.5039,132.125 356.7539,130.625" id="path506"/><path style="opacity:0.8;fill:none;stroke:#004c78" d="M 369.5039,148.625 C 377.2539,134.375 372.0039,128.875 369.0039,128.125" id="path508"/><path style="opacity:0.8;fill:none;stroke:#004c78" d="M 381.5039,126.375 C 389.0039,135.875 380.833,146.125 380.0039,146.125" id="path510"/><path style="opacity:0.8;fill:none;stroke:#004c78" d="M 392.0039,126.125 C 399.5039,134.625 391.8926,142.875 391.7539,142.875" id="path512"/><path style="opacity:0.8;fill:none;stroke:#004c78" d="M 401.0039,124.875 C 406.5039,133.875 400.2207,141.125 399.2539,141.125" id="path514"/><path style="opacity:0.8;fill:none;stroke:#004c78" d="M 403.7539,123.625 C 412.0039,127.375 414.7539,134.375 414.5039,138.125" id="path516"/><path style="opacity:0.8;fill:none;stroke:#004c78" d="M 404.2539,122.375 C 404.2539,122.9277 419.0039,125.375 436.7539,123.375" id="path518"/><path style="opacity:0.8;fill:none;stroke:#004c78" d="M 433.5039,108.125 C 430.2539,112.625 419.0801,119.375 401.2539,119.375" id="path520"/><path style="opacity:0.8;fill:none;stroke:#004c78" d="M 422.2539,94.625 C 422.2539,106.7852 408.5039,110.875 396.5039,116.625" id="path522"/><path style="opacity:0.8;fill:none;stroke:#004c78" d="M 410.5039,83.875 C 410.5039,100.5957 397.2539,106.875 388.0039,112.375" id="path524"/><path style="opacity:0.8;fill:none;stroke:#004c78" d="M 398.0039,75.125 C 398.0039,92.5361 387.2539,100.625 378.2539,106.625" id="path526"/><path style="opacity:0.8;fill:none;stroke:#004c78" d="M 387.2539,66.875 C 387.2539,84.5625 377.5039,93.125 367.2539,98.875" id="path528"/><path style="opacity:0.8;fill:none;stroke:#004c78" d="M 376.2539,59.125 C 376.2539,76.8125 366.5039,84.375 356.5039,91.125" id="path530"/><path style="opacity:0.8;fill:none;stroke:#004c78" d="M 363.2539,50.375 C 363.2539,69.7207 356.5039,79.625 347.5039,85.375" id="path532"/><path style="opacity:0.8;fill:none;stroke:#004c78" d="M 350.2539,41.875 C 354.2539,62.125 343.0039,74.875 338.2539,78.875" id="path534"/><path style="opacity:0.8;fill:none;stroke:#004c78" d="M 335.7539,33.375 C 343.7539,49.625 332.2539,64.375 327.0039,72.125" id="path536"/><path style="opacity:0.8;fill:none;stroke:#004c78" d="M 325.2539,28.375 C 330.5039,48.875 320.7539,61.875 314.7539,65.375" id="path538"/><path style="opacity:0.8;fill:none;stroke:#004c78" d="M 312.0039,21.625 C 318.2539,41.125 308.2539,52.625 302.7539,58.875" id="path540"/><path style="opacity:0.8;fill:none;stroke:#004c78" d="M 301.0039,16.875 C 305.0039,32.125 297.2539,49.125 291.0039,53.125" id="path542"/><path style="opacity:0.8;fill:none;stroke:#004c78" d="M 135.0039,15.7915 C 131.8374,37.4585 141.6704,50.7915 145.1704,53.2915" id="path544"/><path style="opacity:0.8;fill:none;stroke:#004c78" d="M 124.6704,20.4585 C 118.8374,41.9585 131.0039,56.7915 133.5039,59.2915" id="path546"/><path style="opacity:0.8;fill:none;stroke:#004c78" d="M 112.6704,26.2915 C 105.8374,47.4585 118.6704,62.2915 122.1704,65.625" id="path548"/><path style="opacity:0.8;fill:none;stroke:#004c78" d="M 99.6704,33.625 C 94.8374,53.7915 106.6704,69.125 110.5039,73.125" id="path550"/><path style="opacity:0.8;fill:none;stroke:#004c78" d="M 86.5039,41.7915 C 85.1704,61.9585 95.0039,77.2915 99.6704,80.125" id="path552"/><path style="opacity:0.8;fill:none;stroke:#004c78" d="M 73.1704,50.2915 C 69.6704,67.7915 83.5039,83.292 89.6704,86.125" id="path554"/><path style="opacity:0.8;fill:none;stroke:#004c78" d="M 60.6704,58.7915 C 58.3374,76.625 73.1704,87.958 81.0039,91.958" id="path556"/><path style="opacity:0.8;fill:none;stroke:#004c78" d="M 49.3374,66.4585 C 49.3374,84.5147 61.6704,95.625 70.5039,99.125" id="path558"/><path style="opacity:0.8;fill:none;stroke:#004c78" d="M 38.5039,74.625 C 37.3374,92.292 51.0039,104.125 59.5039,106.792" id="path560"/><path style="opacity:0.8;fill:none;stroke:#004c78" d="M 28.3374,81.292 C 27.0039,99.792 41.3374,107.792 48.1704,112.958" id="path562"/><path style="opacity:0.8;fill:none;stroke:#004c78" d="M 13.8374,94.125 C 13.8374,106.4688 28.1704,111.458 39.8374,116.458" id="path564"/><path style="opacity:0.8;fill:none;stroke:#004c78" d="M 2.6704,108.625 C 2.6704,114.5215 16.5039,117.792 34.3374,119.292" id="path566"/><path style="opacity:0.8;fill:none;stroke:#004c78" d="M 0.5039,123.125 C 0.5039,123.125 14.8374,125.625 32.1704,123.125" id="path568"/><path style="opacity:0.8;fill:none;stroke:#004c78" d="M 21.3374,138.625 C 21.3374,130.748 27.3374,125.625 33.0039,124.375" id="path570"/><path style="opacity:0.8;fill:none;stroke:#004c78" d="M 35.5039,125.458 C 30.8374,134.125 36.6968,142.125 38.1704,142.125" id="path572"/><path style="opacity:0.8;fill:none;stroke:#004c78" d="M 44.0039,126.625 C 37.8374,135.458 44.3765,143.292 44.8374,143.292" id="path574"/><path style="opacity:0.8;fill:none;stroke:#004c78" d="M 54.8374,126.958 C 47.8374,137.125 55.8066,146.125 57.0039,146.125" id="path576"/><path style="opacity:0.8;fill:none;stroke:#004c78" d="M 66.0039,128.292 C 59.3374,138.958 66.3765,148.958 66.8374,148.958" id="path578"/><path style="opacity:0.8;fill:none;stroke:#004c78" d="M 76.3374,152.958 C 70.5039,140.292 77.5303,131.625 79.0039,131.625" id="path580"/><path style="opacity:0.8;fill:none;stroke:#004c78" d="M 85.6704,156.792 C 80.1704,144.792 88.354,135.625 91.6704,135.625" id="path582"/><path style="opacity:0.8;fill:none;stroke:#004c78" d="M 93.6704,160.625 C 93.6704,149.2939 99.1704,141.125 104.8374,140.125" id="path584"/><path style="opacity:0.8;fill:none;stroke:#004c78" d="M 104.6704,166.125 C 102.3374,153.625 110.8374,145.792 116.1704,144.625" id="path586"/><path style="opacity:0.8;fill:none;stroke:#004c78" d="M 115.3374,171.625 C 113.0039,157.625 121.8374,150.792 127.5039,148.792" id="path588"/><path style="opacity:0.8;fill:none;stroke:#004c78" d="M 126.1704,177.792 C 125.1704,163.792 133.3374,154.958 139.8374,153.625" id="path590"/><path style="opacity:0.8;fill:none;stroke:#004c78" d="M 136.8374,183.792 C 134.3374,167.958 144.6704,159.625 151.5039,158.125" id="path592"/></g><g id="tear"><linearGradient id="SVGID_5_" gradientUnits="userSpaceOnUse" x1="397.47751" y1="116.9717" x2="370.7334" y2="116.9717"><stop offset="0" style="stop-color:#FFFFFF" id="stop596"/><stop offset="0.1144" style="stop-color:#E0EDF4" id="stop598"/><stop offset="0.3368" style="stop-color:#AACEE1" id="stop600"/><stop offset="0.5443" style="stop-color:#80B5D3" id="stop602"/><stop offset="0.7305" style="stop-color:#61A3C8" id="stop604"/><stop offset="0.8886" style="stop-color:#4F98C1" id="stop606"/><stop offset="1" style="stop-color:#4894BF" id="stop608"/></linearGradient><path style="opacity:0.5;fill:url(#linearGradient3463);fill-rule:evenodd;stroke:#004c78" clip-rule="evenodd" d="M 384.5391,113.585 C 386.3536,114.8428 388.1016,115.5469 390.0684,116.6153 C 391.6622,117.4825 393.2852,118.295 394.8848,119.1505 C 396.1319,119.8165 398.4414,121.2179 397.041,122.8556 C 396.1318,123.922 393.9297,123.755 392.6387,123.9357 C 390.5938,124.2199 388.0782,124.1115 386.0391,123.9357 C 383.5411,123.7189 380.9297,124.3107 378.3877,124.3107 C 376.5527,124.3107 374.7041,124.3898 372.8887,124.3849 C 372.2344,124.3829 371.4102,124.5353 370.9629,123.9581 C 370.4981,123.3604 370.8242,122.6954 371.1875,122.1974 C 371.623,121.6036 372.0332,120.8117 372.5576,120.3478 C 373.0273,119.9347 373.6426,119.6486 374.1133,119.2853 C 375.2598,118.4015 375.6582,117.4669 374.6426,116.3263 C 373.6328,115.1896 372.8906,114.3859 372.8389,112.7775 C 372.7735,110.7238 374.0782,110.3009 375.8262,109.8527 C 378.4434,109.1818 378.2227,109.631 380.4141,110.8849 C 381.4639,111.4854 384.043,113.2402 384.5391,113.585 z" id="path610"/><g style="opacity:0.5" id="g612"><g id="g614"><path style="fill:none" d="M 380.8789,118.4805 C 380.5449,120.2305 382.7949,120.2305 383.9619,120.2305" id="path616"/><path style="fill:#262261" d="M 379.543,118.71 C 379.2344,120.7207 381.6573,120.8057 383.0909,120.8057 C 383.7471,120.8067 384.4493,120.6602 385.004,120.294 C 385.4171,120.0206 385.3741,119.6553 384.8331,119.6553 C 383.8741,119.6543 381.9913,119.71 382.2149,118.251 C 382.3242,117.5391 379.6475,118.0312 379.543,118.71 L 379.543,118.71 z" id="path618"/></g></g><path style="opacity:0.5;fill:none;fill-rule:evenodd;stroke:#1b75bc;stroke-width:0.40000001" clip-rule="evenodd" d="M 384.0469,114.9404 C 385.3692,115.8574 386.6426,116.3711 388.0781,117.1484 C 389.2392,117.7812 390.4219,118.373 391.5879,118.9961 C 392.4981,119.4824 394.1807,120.5039 393.1611,121.6992 C 392.498,122.4765 390.8916,122.3535 389.9511,122.4844 C 388.4609,122.6924 386.6269,122.6133 385.1406,122.4844 C 383.3193,122.3282 381.416,122.7598 379.5625,122.7598 C 378.2246,122.7598 376.877,122.8164 375.5527,122.8125 C 375.0761,122.8125 374.4756,122.9229 374.1494,122.502 C 373.8105,122.0665 374.0488,121.5821 374.3125,121.2178 C 374.6309,120.7862 374.9297,120.209 375.3125,119.8692 C 375.6543,119.5684 376.1035,119.3604 376.4463,119.0958 C 377.2813,118.4513 377.5723,117.7696 376.832,116.9396 C 376.0957,116.1095 375.5547,115.5236 375.5156,114.3517 C 375.4687,112.8537 376.4199,112.547 377.6953,112.2189 C 379.6035,111.7306 379.4414,112.0578 381.0391,112.9718 C 381.8057,113.4092 383.6846,114.6895 384.0469,114.9404 z" id="path620"/><path style="opacity:0.5;fill:none;fill-rule:evenodd;stroke:#1b75bc;stroke-width:0.40000001" clip-rule="evenodd" d="M 383.4375,116.416 C 384.3047,117.0166 385.1406,117.3535 386.084,117.8633 C 386.8438,118.2793 387.6211,118.668 388.3867,119.0762 C 388.9824,119.3946 390.0869,120.0655 389.4179,120.8496 C 388.9824,121.3603 387.9296,121.2783 387.3124,121.3652 C 386.3339,121.5019 385.1308,121.4492 384.1562,121.3652 C 382.9609,121.2617 381.7109,121.5449 380.4951,121.5449 C 379.6181,121.5449 378.7344,121.582 377.8652,121.5801 C 377.5527,121.5801 377.1572,121.6524 376.9443,121.376 C 376.7207,121.0918 376.8789,120.7715 377.0507,120.5332 C 377.2597,120.251 377.456,119.8721 377.7069,119.6484 C 377.9315,119.4511 378.2264,119.3144 378.451,119.1406 C 378.9979,118.7187 379.1893,118.2715 378.7039,117.7265 C 378.2215,117.1826 377.865,116.7978 377.8406,116.0292 C 377.8103,115.0448 378.4334,114.8446 379.2693,114.6288 C 380.5213,114.3095 380.4158,114.5233 381.4646,115.1229 C 381.9688,115.4102 383.2012,116.25 383.4375,116.416 z" id="path622"/></g><g id="tear_copy"><linearGradient id="SVGID_6_" gradientUnits="userSpaceOnUse" x1="730.29688" y1="117.7197" x2="703.55371" y2="117.7197" gradientTransform="matrix(-0.9997,-2.62e-2,-2.62e-2,0.9997,770.5633,19.0474)"><stop offset="0" style="stop-color:#FFFFFF" id="stop626"/><stop offset="0.1144" style="stop-color:#E0EDF4" id="stop628"/><stop offset="0.3368" style="stop-color:#AACEE1" id="stop630"/><stop offset="0.5443" style="stop-color:#80B5D3" id="stop632"/><stop offset="0.7305" style="stop-color:#61A3C8" id="stop634"/><stop offset="0.8886" style="stop-color:#4F98C1" id="stop636"/><stop offset="1" style="stop-color:#4894BF" id="stop638"/></linearGradient><path style="opacity:0.5;fill:url(#linearGradient3465);fill-rule:evenodd;stroke:#004c78" clip-rule="evenodd" d="M 50.4277,114.4082 C 48.581,115.6172 46.8149,116.2754 44.8208,117.292 C 43.2051,118.1172 41.561,118.8867 39.9399,119.7002 C 38.6757,120.333 36.33,121.6729 37.6875,123.3477 C 38.5684,124.4375 40.7739,124.3282 42.0601,124.542 C 44.0967,124.8799 46.6143,124.8369 48.6573,124.7158 C 51.1602,124.5635 53.755,125.2246 56.296,125.29 C 58.1305,125.3398 59.9762,125.4668 61.7911,125.5088 C 62.4449,125.5244 63.2652,125.6983 63.7276,125.1328 C 64.2076,124.5478 63.899,123.874 63.5489,123.3672 C 63.1295,122.7627 62.7398,121.96 62.2281,121.4824 C 61.7691,121.0566 61.1622,120.7549 60.7008,120.3799 C 59.5778,119.4658 59.2037,118.5205 60.2491,117.4072 C 61.2887,116.2978 62.0513,115.5136 62.1456,113.9072 C 62.2647,111.8554 61.0338,111.0566 59.2354,110.9043 C 56.9205,110.708 57.0108,111.1826 54.7125,112.041 C 53.5791,112.4639 50.9331,114.0762 50.4277,114.4082 z" id="path640"/><g style="opacity:0.5" id="g642"><g id="g644"><path style="fill:none" d="M 53.9585,119.3975 C 54.2461,121.1553 51.9976,121.0967 50.8306,121.0664" id="path646"/><path style="fill:#262261" d="M 52.6064,119.7598 C 52.6401,120.0264 52.6328,120.2334 52.5195,120.4786 C 52.5229,120.4708 52.4052,120.6222 52.4638,120.5763 C 52.5732,120.4923 52.7553,120.4718 52.8847,120.4445 C 52.5434,120.5177 52.2148,120.5041 51.7011,120.4914 C 51.0527,120.4748 50.3344,120.6428 49.7885,121.0031 C 49.3661,121.2824 49.4267,121.6281 49.9599,121.6418 C 51.6337,121.6848 55.6284,121.5422 55.3105,119.0354 C 55.2368,118.4521 52.5112,119.0117 52.6064,119.7598 L 52.6064,119.7598 z" id="path648"/></g></g><path style="opacity:0.5;fill:none;fill-rule:evenodd;stroke:#1b75bc;stroke-width:0.40000001" clip-rule="evenodd" d="M 50.8843,115.7754 C 49.5386,116.6572 48.252,117.1377 46.7969,117.877 C 45.6192,118.4795 44.4219,119.0401 43.2393,119.6319 C 42.3169,120.0948 40.6084,121.0714 41.5962,122.293 C 42.2383,123.0869 43.8477,123.0069 44.7842,123.1621 C 46.2686,123.4101 48.104,123.3779 49.5928,123.2881 C 51.418,123.1797 53.3091,123.6611 55.1621,123.71 C 56.4995,123.7442 57.8457,123.837 59.1694,123.8682 C 59.6455,123.8809 60.2426,124.0069 60.58,123.5938 C 60.9306,123.168 60.7045,122.6768 60.4506,122.3067 C 60.144,121.8663 59.8603,121.2813 59.4862,120.9317 C 59.1527,120.6221 58.7089,120.4024 58.3729,120.128 C 57.555,119.462 57.2821,118.7735 58.0438,117.963 C 58.8021,117.1534 59.3583,116.5812 59.4276,115.4103 C 59.514,113.9142 58.5716,113.5832 57.305,113.2218 C 55.41,112.6827 55.5633,113.0148 53.9427,113.8868 C 53.165,114.3037 51.2529,115.5342 50.8843,115.7754 z" id="path650"/><path style="opacity:0.5;fill:none;fill-rule:evenodd;stroke:#1b75bc;stroke-width:0.40000001" clip-rule="evenodd" d="M 51.4546,117.2666 C 50.5723,117.8447 49.7275,118.1602 48.771,118.6445 C 48.001,119.04 47.2139,119.4082 46.438,119.7959 C 45.834,120.0986 44.7119,120.7402 45.3599,121.542 C 45.7823,122.0645 46.8365,122.0098 47.4517,122.1123 C 48.4258,122.2744 49.6304,122.2539 50.607,122.1953 C 51.8043,122.123 53.0465,122.4394 54.2618,122.4707 C 55.1388,122.4941 56.0211,122.5547 56.8897,122.5752 C 57.2022,122.583 57.5953,122.666 57.816,122.3955 C 58.047,122.1162 57.8966,121.792 57.7315,121.5498 C 57.5298,121.2617 57.3433,120.8779 57.0987,120.6484 C 56.8795,120.4453 56.588,120.3007 56.3682,120.1211 C 55.8321,119.6846 55.6529,119.2324 56.1524,118.7012 C 56.6485,118.17 57.0152,117.794 57.0596,117.0274 C 57.1158,116.044 56.4981,115.8272 55.668,115.5899 C 54.4253,115.2374 54.5249,115.4542 53.4605,116.0264 C 52.9492,116.2998 51.6953,117.1064 51.4546,117.2666 z" id="path652"/></g></g><g transform="matrix(1.3372628,0,0,1.3372628,-73.788275,-55.013465)" id="group-4"/></g></g></g></g></svg>