<?xml version="1.0" encoding="utf-8"?>
<svg xmlns="http://www.w3.org/2000/svg" viewBox="423.781 190.58 70.471 112.089" width="70.471px" height="112.089px"><g id="object-5"><path style="stroke-width: 1; fill: rgb(255, 255, 255);" d="M 443.461 197.206 L 455.711 197.206 L 455.711 222.643 L 443.461 222.643 L 443.461 197.206 Z M 443.461 249.457 L 455.711 249.457 L 455.711 274.893 L 443.461 274.893 L 443.461 249.457 Z" color="#000" id="object-0"/><path style="stroke-width: 1; fill: rgb(255, 255, 255);" d="M 443.461 230.067 L 455.711 230.067 L 455.711 242.068 L 443.461 242.068 L 443.461 230.067 Z" color="#000" id="object-1"/><path style="stroke-width: 1; fill: rgb(255, 255, 255);" d="M 423.781 218.117 L 436.031 218.117 L 436.031 302.669 L 423.781 302.669 L 423.781 218.117 Z M 462.734 270.444 L 474.984 270.444 L 474.984 295.88 L 462.734 295.88 L 462.734 270.444 Z M 462.734 218.147 L 474.984 218.147 L 474.984 243.584 L 462.734 243.584 L 462.734 218.147 Z" color="#000" id="object-2"/><path style="stroke-width: 1; fill: rgb(255, 255, 255);" d="M 462.734 251.013 L 474.984 251.013 L 474.984 263.014 L 462.734 263.014 L 462.734 251.013 Z" color="#000" id="object-3"/><path style="stroke-width: 1; fill: rgb(255, 255, 255);" d="M 482.002 190.58 L 494.252 190.58 L 494.252 275.132 L 482.002 275.132 L 482.002 190.58 Z" color="#000" id="object-4"/></g></svg>