<?xml version="1.0" encoding="utf-8"?>
<svg xmlns="http://www.w3.org/2000/svg" viewBox="279.1762 202.1901 111.1615 112.3887" width="111.162px" height="112.389px" preserveAspectRatio="none"><defs><linearGradient id="linearGradient1478" gradientUnits="userSpaceOnUse" gradientTransform="matrix(0.562541, 0, 0, 0.567972, 397.261504, 235.810599)" x1="26.648937" y1="20.603781" x2="135.66525" y2="114.39767" href="#linearGradient4689"/><linearGradient id="linearGradient4689"><stop style="stop-color:#5a9fd4;stop-opacity:1;" offset="0" id="stop4691"/><stop style="stop-color:#306998;stop-opacity:1;" offset="1" id="stop4693"/></linearGradient><linearGradient id="linearGradient1475" gradientUnits="userSpaceOnUse" gradientTransform="matrix(0.562541, 0, 0, 0.567972, 397.261504, 235.810599)" x1="150.96111" y1="192.35176" x2="112.03144" y2="137.27299" href="#linearGradient4671"/><linearGradient id="linearGradient4671"><stop style="stop-color:#ffd43b;stop-opacity:1;" offset="0" id="stop4673"/><stop style="stop-color:#ffe873;stop-opacity:1" offset="1" id="stop4675"/></linearGradient></defs><g id="object-0" transform="matrix(1, 0, 0, 1, -133.07618713378903, -45.32305145263672)"><path style="fill: url(&quot;#linearGradient1478&quot;); fill-opacity: 1; stroke-width: 1;" d="M 467.171 247.514 C 462.588 247.535 458.21 247.926 454.359 248.608 C 443.013 250.612 440.953 254.808 440.953 262.545 L 440.953 272.764 L 467.765 272.764 L 467.765 276.17 L 440.953 276.17 L 430.89 276.17 C 423.098 276.17 416.274 280.854 414.14 289.764 C 411.678 299.977 411.569 306.35 414.14 317.014 C 416.046 324.952 420.598 330.608 428.39 330.608 L 437.609 330.608 L 437.609 318.358 C 437.609 309.508 445.266 301.701 454.359 301.701 L 481.14 301.701 C 488.595 301.701 494.546 295.563 494.546 288.076 L 494.546 262.545 C 494.546 255.279 488.416 249.82 481.14 248.608 C 476.534 247.841 471.755 247.493 467.171 247.514 Z M 452.671 255.733 C 455.441 255.733 457.703 258.031 457.703 260.858 C 457.703 263.674 455.441 265.951 452.671 265.951 C 449.892 265.951 447.64 263.674 447.64 260.858 C 447.64 258.031 449.892 255.733 452.671 255.733 Z" id="path1948"/><path style="fill: url(&quot;#linearGradient1475&quot;); fill-opacity: 1; stroke-width: 1;" d="M 497.89 276.17 L 497.89 288.076 C 497.89 297.307 490.064 305.076 481.14 305.076 L 454.359 305.076 C 447.023 305.076 440.953 311.355 440.953 318.701 L 440.953 344.233 C 440.953 351.499 447.271 355.773 454.359 357.858 C 462.846 360.353 470.985 360.804 481.14 357.858 C 487.89 355.903 494.546 351.97 494.546 344.233 L 494.546 334.014 L 467.765 334.014 L 467.765 330.608 L 494.546 330.608 L 507.953 330.608 C 515.745 330.608 518.649 325.172 521.359 317.014 C 524.158 308.615 524.039 300.538 521.359 289.764 C 519.433 282.006 515.755 276.17 507.953 276.17 L 497.89 276.17 Z M 482.828 340.826 C 485.607 340.826 487.859 343.104 487.859 345.92 C 487.859 348.746 485.607 351.045 482.828 351.045 C 480.058 351.045 477.796 348.746 477.796 345.92 C 477.796 343.104 480.058 340.826 482.828 340.826 Z" id="path1950"/></g></svg>