<?xml version="1.0" encoding="utf-8"?>
<svg xmlns="http://www.w3.org/2000/svg" viewBox="50 50.0003 199.9999 199.9997" width="200px" height="200px" preserveAspectRatio="none"><g id="object-0"><path d="M 73.253 189.82 C 72.235 187.77 69.715 186.915 67.643 187.901 L 59.399 191.823 C 59.399 191.823 82.898 247.403 148.693 250 C 211.355 248.442 249.608 199.484 249.997 149.749 C 250.387 100.013 211.355 50.536 150.26 50.017 C 90.208 48.978 67.174 96.77 67.174 96.77 C 66.053 98.775 65.143 98.534 65.143 96.25 L 65.143 90.272 C 65.142 87.978 63.272 86.119 60.966 86.119 L 54.177 86.119 C 51.87 86.119 50 87.989 50 90.283 L 50 121.171 C 49.995 123.469 51.865 125.335 54.175 125.335 L 86.92 125.335 C 89.225 125.337 91.095 123.48 91.096 121.187 L 91.096 114.939 C 91.096 112.648 89.226 110.763 86.91 110.728 L 80.295 110.334 C 77.983 110.299 76.929 108.589 78.016 106.565 C 78.016 106.565 96.997 63.003 149.737 63.522 C 200.912 64.041 236.16 107.081 235.898 150 C 232.765 207.406 188.901 235.456 148.693 234.417 C 91.775 234.417 73.253 189.82 73.253 189.82 Z" fill-rule="evenodd" style="stroke-width: 1; fill: rgb(255, 255, 255);"/><path d="M 205.301 137.498 L 198.694 137.498 C 197.466 132.71 195.55 128.227 193.05 124.125 L 197.8 119.365 C 199.082 118.082 199.787 116.372 199.787 114.555 C 199.787 112.742 199.076 111.028 197.8 109.749 L 189.884 101.841 C 187.317 99.271 182.83 99.274 180.274 101.838 L 175.323 106.759 C 171.268 104.395 166.92 102.573 162.129 101.402 L 162.129 94.332 C 162.129 90.583 159.134 87.5 155.385 87.5 L 144.194 87.5 C 140.445 87.5 137.495 90.583 137.495 94.332 L 137.495 101.399 C 132.708 102.568 128.332 104.392 124.271 106.759 L 119.324 101.838 C 116.759 99.268 112.27 99.271 109.697 101.836 L 101.787 109.743 C 100.518 111.009 99.794 112.761 99.794 114.55 C 99.794 116.364 100.497 118.071 101.782 119.354 L 106.531 124.125 C 104.034 128.227 102.115 132.71 100.89 137.498 L 94.28 137.498 C 90.529 137.498 87.5 140.512 87.5 144.253 L 87.5 155.436 C 87.5 159.188 90.529 162.135 94.28 162.135 L 100.89 162.135 C 102.115 166.922 104.032 171.433 106.526 175.535 L 101.776 180.314 C 100.491 181.596 99.786 183.312 99.786 185.129 C 99.786 186.945 100.494 188.661 101.776 189.943 L 109.692 197.856 C 110.977 199.139 112.682 199.844 114.496 199.844 C 116.309 199.844 118.017 199.136 119.302 197.856 L 124.271 192.933 C 128.332 195.3 132.708 197.122 137.495 198.296 L 137.495 205.355 C 137.495 209.104 140.445 212.127 144.194 212.127 L 155.385 212.127 C 159.134 212.127 162.129 209.104 162.129 205.355 L 162.129 198.293 C 166.92 197.122 171.268 195.3 175.329 192.933 L 180.255 197.846 C 181.54 199.133 183.247 199.838 185.066 199.838 C 186.883 199.838 188.593 199.131 189.876 197.851 L 197.791 189.943 C 199.074 188.664 199.776 186.953 199.781 185.14 C 199.781 183.323 199.071 181.618 197.791 180.333 L 193.047 175.535 C 195.541 171.43 197.458 166.917 198.686 162.135 L 205.295 162.135 C 209.045 162.135 212.127 159.188 212.127 155.436 L 212.127 144.253 C 212.13 140.512 209.05 137.498 205.301 137.498 Z M 149.787 171.132 C 137.918 171.132 128.294 161.598 128.294 149.846 C 128.294 138.086 137.918 128.565 149.787 128.565 C 161.658 128.565 171.287 138.086 171.287 149.846 C 171.284 161.601 161.658 171.132 149.787 171.132 Z" style="stroke-width: 2.711; fill: rgb(255, 255, 255);"/></g></svg>